<svg width="363" height="68" viewBox="0 0 363 68" fill="none" xmlns="http://www.w3.org/2000/svg">
<g filter="url(#filter0_d_996_1487)">
<path d="M9 11.5552V50.4441" stroke="#A682D9" stroke-width="6" stroke-linecap="round"/>
<path d="M29 6V56" stroke="#A682D9" stroke-width="6" stroke-linecap="round"/>
<path d="M49 8.77783V53.2223" stroke="#A682D9" stroke-width="6" stroke-linecap="round"/>
<path d="M70 6V56" stroke="#A682D9" stroke-width="6" stroke-linecap="round"/>
<path d="M90 11.5557V50.4446" stroke="#A682D9" stroke-width="6" stroke-linecap="round"/>
<path d="M110 8.77783V53.2223" stroke="#A682D9" stroke-width="6" stroke-linecap="round"/>
<path d="M131 11.5557V50.4446" stroke="#A682D9" stroke-width="6" stroke-linecap="round"/>
<path d="M151 8.77783V53.2223" stroke="#A682D9" stroke-width="6" stroke-linecap="round"/>
<path d="M171 6V56" stroke="#A682D9" stroke-width="6" stroke-linecap="round"/>
<path d="M192 8.78223V53.2267" stroke="#A682D9" stroke-width="6" stroke-linecap="round"/>
<path d="M212 6V56" stroke="#A682D9" stroke-width="6" stroke-linecap="round"/>
<path d="M232 11.5513V50.4401" stroke="#A682D9" stroke-width="6" stroke-linecap="round"/>
<path d="M253 6V56" stroke="#A682D9" stroke-width="6" stroke-linecap="round"/>
<path d="M273 11.5557V50.4446" stroke="#A682D9" stroke-width="6" stroke-linecap="round"/>
<path d="M293 8.77783V53.2223" stroke="#A682D9" stroke-width="6" stroke-linecap="round"/>
<path d="M314 6V56" stroke="#A682D9" stroke-width="6" stroke-linecap="round"/>
<path d="M334 8.77783V53.2223" stroke="#A682D9" stroke-width="6" stroke-linecap="round"/>
<path d="M354 11.5557V50.4445" stroke="#A682D9" stroke-width="6" stroke-linecap="round"/>
</g>
<defs>
<filter id="filter0_d_996_1487" x="0" y="0" width="363" height="68" filterUnits="userSpaceOnUse" color-interpolation-filters="sRGB">
<feFlood flood-opacity="0" result="BackgroundImageFix"/>
<feColorMatrix in="SourceAlpha" type="matrix" values="0 0 0 0 0 0 0 0 0 0 0 0 0 0 0 0 0 0 127 0" result="hardAlpha"/>
<feOffset dy="3"/>
<feGaussianBlur stdDeviation="3"/>
<feComposite in2="hardAlpha" operator="out"/>
<feColorMatrix type="matrix" values="0 0 0 0 0 0 0 0 0 0 0 0 0 0 0 0 0 0 0.25 0"/>
<feBlend mode="normal" in2="BackgroundImageFix" result="effect1_dropShadow_996_1487"/>
<feBlend mode="normal" in="SourceGraphic" in2="effect1_dropShadow_996_1487" result="shape"/>
</filter>
</defs>
</svg>
