<svg width="36" height="36" viewBox="0 0 36 36" fill="none" xmlns="http://www.w3.org/2000/svg">
<path d="M26.625 17.9999C26.625 20.2874 25.7163 22.4812 24.0988 24.0987C22.4813 25.7162 20.2875 26.6249 18 26.6249C15.7125 26.6249 13.5187 25.7162 11.9012 24.0987C10.2837 22.4812 9.375 20.2874 9.375 17.9999C9.375 15.7124 10.2837 13.5186 11.9012 11.9011C13.5187 10.2836 15.7125 9.37488 18 9.37488C20.2875 9.37488 22.4813 10.2836 24.0988 11.9011C25.7163 13.5186 26.625 15.7124 26.625 17.9999ZM26.625 17.9999C26.625 21.1758 28.5551 23.7499 30.9375 23.7499C33.3199 23.7499 35.25 21.1758 35.25 17.9999C35.25 14.009 33.8662 10.1416 31.3343 7.05663C28.8025 3.97166 25.2794 1.86 21.3652 1.08145C17.451 0.302904 13.3879 0.905635 9.86829 2.78695C6.34867 4.66826 3.59025 7.71175 2.06303 11.3989C0.535819 15.086 0.334302 19.1885 1.49282 23.0076C2.65134 26.8266 5.09821 30.1258 8.41651 32.3429C11.7348 34.5601 15.7193 35.5582 19.6909 35.167C23.6626 34.7758 27.3757 33.0195 30.1977 30.1975M26.625 17.9999V10.8124" stroke="#3E1874" stroke-width="1.5" stroke-linecap="round"/>
</svg>
