<svg width="267" height="177" viewBox="0 0 267 177" fill="none" xmlns="http://www.w3.org/2000/svg">
<g clip-path="url(#clip0_236_1652)">
<path d="M14.7541 176.908C16.2076 176.475 17.5575 175.75 18.7217 174.779C19.8859 173.808 20.84 172.61 21.5261 171.259C22.2121 169.908 22.6157 168.432 22.7122 166.92C22.8087 165.408 22.5962 163.892 22.0876 162.465C21.0147 159.441 18.5833 157.212 17.1338 154.394C15.7139 151.63 15.3823 148.435 16.2043 145.438C17.0263 142.442 18.9424 139.861 21.5748 138.205C21.8772 138.014 22.1874 137.836 22.5054 137.672C22.8057 137.516 22.5401 137.062 22.24 137.218C19.5238 138.627 17.3933 140.948 16.2249 143.773C15.0565 146.597 14.9253 149.744 15.8546 152.655C16.3671 154.167 17.1085 155.591 18.053 156.878C18.9601 158.174 19.9523 159.416 20.736 160.793C21.5411 162.194 22.0248 163.755 22.1522 165.365C22.2797 166.974 22.0477 168.592 21.473 170.101C20.9412 171.433 20.1485 172.645 19.1414 173.666C18.1344 174.687 16.9332 175.498 15.6084 176.049C15.2834 176.184 14.951 176.3 14.6143 176.402C14.5492 176.422 14.4945 176.467 14.4619 176.527C14.4293 176.587 14.4211 176.657 14.4393 176.722C14.4574 176.788 14.5004 176.844 14.5591 176.879C14.6178 176.913 14.6877 176.924 14.7541 176.908Z" fill="#F0F0F0"/>
<path d="M22.3872 142.574C25.261 142.574 27.5906 140.248 27.5906 137.378C27.5906 134.508 25.261 132.182 22.3872 132.182C19.5135 132.182 17.1838 134.508 17.1838 137.378C17.1838 140.248 19.5135 142.574 22.3872 142.574Z" fill="#F0F0F0"/>
<path d="M19.4603 155.565C21.2564 155.565 22.7124 154.111 22.7124 152.317C22.7124 150.524 21.2564 149.07 19.4603 149.07C17.6642 149.07 16.2082 150.524 16.2082 152.317C16.2082 154.111 17.6642 155.565 19.4603 155.565Z" fill="#F0F0F0"/>
<path d="M181.895 95.3909C180.441 94.9572 179.092 94.2328 177.927 93.2617C176.763 92.2905 175.809 91.0929 175.123 89.7418C174.437 88.3907 174.033 86.9144 173.937 85.4026C173.84 83.8908 174.053 82.3751 174.561 80.948C175.634 77.9237 178.066 75.6945 179.515 72.8771C180.935 70.1126 181.267 66.9173 180.445 63.9208C179.623 60.9243 177.707 58.3439 175.074 56.688C174.772 56.4968 174.462 56.319 174.144 56.1546C173.843 55.9985 174.109 55.5451 174.409 55.7011C177.125 57.1093 179.256 59.4307 180.424 62.2554C181.592 65.0801 181.724 68.2263 180.794 71.1382C180.282 72.6495 179.54 74.0735 178.596 75.3606C177.689 76.6563 176.697 77.8984 175.913 79.276C175.108 80.6763 174.624 82.2377 174.497 83.8473C174.369 85.457 174.601 87.0748 175.176 88.5841C175.708 89.9155 176.5 91.1274 177.508 92.1488C178.515 93.1701 179.716 93.9804 181.041 94.5321C181.366 94.6666 181.698 94.7827 182.035 94.8845C182.1 94.9048 182.154 94.9496 182.187 95.0095C182.22 95.0693 182.228 95.1394 182.21 95.2051C182.192 95.2708 182.149 95.3268 182.09 95.3615C182.031 95.3961 181.961 95.4067 181.895 95.3909Z" fill="#F0F0F0"/>
<path d="M174.262 61.0568C177.136 61.0568 179.465 58.7304 179.465 55.8605C179.465 52.9907 177.136 50.6642 174.262 50.6642C171.388 50.6642 169.058 52.9907 169.058 55.8605C169.058 58.7304 171.388 61.0568 174.262 61.0568Z" fill="#F0F0F0"/>
<path d="M177.189 74.0477C178.985 74.0477 180.441 72.5936 180.441 70.8C180.441 69.0063 178.985 67.5522 177.189 67.5522C175.393 67.5522 173.937 69.0063 173.937 70.8C173.937 72.5936 175.393 74.0477 177.189 74.0477Z" fill="#F0F0F0"/>
<path d="M134.68 41.8833H133.711V15.3543C133.711 13.3379 133.313 11.3413 132.54 9.47845C131.768 7.61559 130.635 5.92294 129.207 4.49717C127.78 3.07139 126.085 1.94041 124.219 1.16878C122.354 0.397154 120.355 1.70601e-06 118.336 0H62.0537C57.9759 -7.75209e-06 54.0652 1.61766 51.1818 4.49714C48.2984 7.37661 46.6785 11.282 46.6785 15.3542V160.894C46.6785 162.911 47.0761 164.907 47.8488 166.77C48.6215 168.633 49.754 170.326 51.1817 171.752C52.6095 173.177 54.3044 174.308 56.1698 175.08C58.0352 175.852 60.0345 176.249 62.0536 176.249H118.335C122.413 176.249 126.324 174.631 129.207 171.752C132.091 168.872 133.711 164.967 133.711 160.894V60.7671H134.68V41.8833Z" fill="#CACACA"/>
<path d="M118.956 3.99464H111.609C111.947 4.82182 112.076 5.71928 111.985 6.60795C111.894 7.49663 111.585 8.34925 111.086 9.09071C110.587 9.83217 109.913 10.4397 109.123 10.8598C108.334 11.2799 107.453 11.4997 106.559 11.4997H74.3154C73.4209 11.4997 72.5401 11.2799 71.7506 10.8598C70.9611 10.4397 70.2872 9.83217 69.7882 9.09071C69.2893 8.34925 68.9805 7.49663 68.8892 6.60795C68.798 5.71927 68.9269 4.82181 69.2648 3.99463H62.403C60.8951 3.99463 59.4021 4.29122 58.009 4.86745C56.6159 5.44369 55.3502 6.2883 54.284 7.35305C53.2178 8.41781 52.372 9.68185 51.795 11.073C51.218 12.4642 50.921 13.9552 50.921 15.461V160.788C50.921 162.293 51.218 163.784 51.795 165.176C52.372 166.567 53.2178 167.831 54.284 168.896C55.3502 169.96 56.6159 170.805 58.009 171.381C59.4021 171.957 60.8951 172.254 62.403 172.254H118.956C120.464 172.254 121.957 171.957 123.35 171.381C124.743 170.805 126.009 169.96 127.075 168.896C128.141 167.831 128.987 166.567 129.564 165.176C130.141 163.784 130.438 162.293 130.438 160.788V15.461C130.438 13.9552 130.141 12.4642 129.564 11.073C128.987 9.68186 128.141 8.41781 127.075 7.35306C126.009 6.28831 124.743 5.4437 123.35 4.86746C121.957 4.29122 120.464 3.99464 118.956 3.99464Z" fill="white"/>
<path d="M113.242 126.48C103.428 126.304 103.429 111.739 113.242 111.565C123.056 111.741 123.054 126.306 113.242 126.48Z" fill="white"/>
<path d="M113.242 126.48C103.428 126.304 103.429 111.739 113.242 111.565C123.056 111.741 123.054 126.306 113.242 126.48ZM113.242 112.017C104.022 112.182 104.024 125.864 113.242 126.028C122.461 125.863 122.459 112.181 113.242 112.017Z" fill="#E6E6E6"/>
<path d="M114.837 115.2C112.996 115.252 109.416 114.595 109.414 117.43C109.467 119.268 108.808 122.843 111.647 122.845C113.488 122.793 117.068 123.45 117.07 120.615C117.017 118.777 117.675 115.201 114.837 115.2Z" fill="#CACACA"/>
<path d="M115.315 117.43C115.191 117.426 115.073 117.374 114.986 117.285C114.9 117.195 114.851 117.076 114.852 116.952C114.852 116.828 114.901 116.708 114.988 116.619C115.075 116.531 115.193 116.479 115.317 116.476C115.442 116.48 115.56 116.532 115.646 116.621C115.733 116.71 115.781 116.83 115.781 116.954C115.781 117.078 115.732 117.197 115.645 117.286C115.558 117.375 115.44 117.426 115.315 117.43Z" fill="white"/>
<path d="M113.242 117.748C114.897 117.724 114.897 120.321 113.242 120.297C111.586 120.321 111.586 117.724 113.242 117.748ZM113.242 117.111C110.758 117.075 110.758 120.97 113.242 120.934C115.725 120.97 115.725 117.074 113.242 117.111Z" fill="white"/>
<path d="M68.0572 126.48C58.2432 126.304 58.2448 111.739 68.0575 111.565C77.8712 111.741 77.8696 126.306 68.0572 126.48Z" fill="white"/>
<path d="M68.0572 126.48C58.2432 126.304 58.2448 111.739 68.0575 111.565C77.8712 111.741 77.8696 126.306 68.0572 126.48ZM68.0572 112.017C58.838 112.182 58.8395 125.864 68.0575 126.028C77.2764 125.863 77.2749 112.181 68.0572 112.017Z" fill="#E6E6E6"/>
<path d="M72.1117 117.141C71.8793 117.411 71.6266 117.664 71.3559 117.896C71.0209 121.536 68.745 122.363 66.9176 122.363C65.6039 122.363 64.5213 121.935 64.5573 121.818C66.5065 121.863 66.6726 121.064 66.6726 121.064C65.5402 120.897 65.3132 120.159 65.3132 120.159C65.4147 120.212 65.5325 120.227 65.6438 120.199C65.7552 120.171 65.8523 120.103 65.9168 120.008C65.5845 119.932 65.2924 119.736 65.0972 119.457C64.902 119.178 64.8176 118.836 64.8605 118.499C65.0783 118.656 65.3328 118.755 65.5997 118.786C65.4641 118.62 64.3206 117.252 65.0086 116.542C65.3705 117.055 65.854 117.471 66.4159 117.751C66.9778 118.032 67.6006 118.17 68.2286 118.152C68.1814 117.92 68.1861 117.682 68.2423 117.453C68.2984 117.224 68.4047 117.01 68.5535 116.827C68.7022 116.643 68.8898 116.495 69.1027 116.393C69.3155 116.291 69.5484 116.237 69.7846 116.235C70.8423 116.235 71.0693 116.84 71.0693 116.84L71.8252 116.386C71.8099 116.386 71.7338 117.141 71.3559 117.292L72.1117 117.141Z" fill="#CACACA"/>
<path d="M90.6494 126.48C80.8354 126.304 80.837 111.739 90.6497 111.565C100.463 111.741 100.462 126.306 90.6494 126.48Z" fill="white"/>
<path d="M90.6494 126.48C80.8355 126.304 80.837 111.739 90.6498 111.565C100.463 111.741 100.462 126.306 90.6494 126.48ZM90.6494 112.017C81.4303 112.182 81.4317 125.864 90.6497 126.028C99.8686 125.863 99.8671 112.181 90.6494 112.017Z" fill="#E6E6E6"/>
<path d="M94.7641 119.047C94.7643 120.033 94.4119 120.988 93.7703 121.738C93.1288 122.488 92.2402 122.986 91.2644 123.14V120.245H92.2307L92.4148 119.047H91.2644C91.2257 118.049 91.1869 117.489 92.4633 117.623V116.604C90.5515 116.184 89.7541 117.151 89.9687 119.047H88.9152V120.245H89.9687V123.139C85.01 122.377 85.5928 114.885 90.6152 114.905C91.7153 114.905 92.7705 115.341 93.5486 116.118C94.3266 116.894 94.7639 117.948 94.7641 119.047Z" fill="#CACACA"/>
<path d="M119.273 82.8298H62.0855C61.7329 82.8294 61.3949 82.6893 61.1455 82.4404C60.8962 82.1914 60.756 81.8538 60.7556 81.5017V46.1731C60.756 45.821 60.8962 45.4834 61.1455 45.2344C61.3949 44.9854 61.7329 44.8454 62.0855 44.845H119.273C119.626 44.8454 119.964 44.9854 120.213 45.2344C120.463 45.4834 120.603 45.821 120.603 46.1731V81.5017C120.603 81.8538 120.463 82.1914 120.213 82.4404C119.964 82.6893 119.626 82.8294 119.273 82.8298Z" fill="white"/>
<path d="M119.273 82.8298H62.0855C61.7329 82.8294 61.3949 82.6893 61.1455 82.4404C60.8962 82.1914 60.756 81.8538 60.7556 81.5017V46.1731C60.756 45.821 60.8962 45.4834 61.1455 45.2344C61.3949 44.9854 61.7329 44.8454 62.0855 44.845H119.273C119.626 44.8454 119.964 44.9854 120.213 45.2344C120.463 45.4834 120.603 45.821 120.603 46.1731V81.5017C120.603 81.8538 120.463 82.1914 120.213 82.4404C119.964 82.6893 119.626 82.8294 119.273 82.8298ZM62.0855 45.3762C61.8739 45.3765 61.6711 45.4605 61.5215 45.6099C61.3719 45.7593 61.2878 45.9618 61.2875 46.1731V81.5017C61.2878 81.713 61.3719 81.9155 61.5215 82.0649C61.6711 82.2143 61.8739 82.2983 62.0855 82.2986H119.273C119.485 82.2983 119.688 82.2143 119.837 82.0649C119.987 81.9155 120.071 81.713 120.071 81.5017V46.1731C120.071 45.9618 119.987 45.7593 119.837 45.6099C119.688 45.4605 119.485 45.3765 119.273 45.3762H62.0855Z" fill="#CACACA"/>
<path d="M107.969 60.9154H73.3901C73.0733 60.9144 72.7699 60.788 72.5462 60.5639C72.3226 60.3399 72.1971 60.0364 72.1971 59.7201C72.1971 59.4038 72.3226 59.1003 72.5462 58.8763C72.7699 58.6522 73.0733 58.5258 73.3901 58.5248H107.969C108.126 58.5243 108.282 58.5548 108.428 58.6146C108.574 58.6745 108.706 58.7624 108.818 58.8735C108.929 58.9845 109.018 59.1165 109.078 59.2618C109.139 59.407 109.17 59.5628 109.17 59.7201C109.17 59.8774 109.139 60.0332 109.078 60.1785C109.018 60.3237 108.929 60.4557 108.818 60.5667C108.706 60.6778 108.574 60.7657 108.428 60.8256C108.282 60.8854 108.126 60.9159 107.969 60.9154Z" fill="#6C63FF"/>
<path d="M107.969 69.1499H73.3901C73.0733 69.1489 72.7699 69.0225 72.5462 68.7984C72.3226 68.5744 72.1971 68.2709 72.1971 67.9546C72.1971 67.6383 72.3226 67.3348 72.5462 67.1108C72.7699 66.8867 73.0733 66.7603 73.3901 66.7593H107.969C108.126 66.7588 108.282 66.7893 108.428 66.8491C108.574 66.909 108.706 66.9969 108.818 67.108C108.929 67.219 109.018 67.351 109.078 67.4963C109.139 67.6415 109.17 67.7973 109.17 67.9546C109.17 68.1119 109.139 68.2677 109.078 68.4129C109.018 68.5582 108.929 68.6902 108.818 68.8012C108.706 68.9123 108.574 69.0002 108.428 69.0601C108.282 69.1199 108.126 69.1504 107.969 69.1499Z" fill="#6C63FF"/>
<path d="M179.76 113.016C179.705 113.22 179.666 113.427 179.644 113.636L162.919 122.408L159.035 119.966L154.578 125.337L161.032 130.328C161.554 130.731 162.192 130.954 162.852 130.964C163.511 130.974 164.156 130.771 164.689 130.384L182.078 117.769C182.827 118.08 183.654 118.156 184.448 117.987C185.243 117.818 185.966 117.411 186.523 116.821C187.08 116.231 187.444 115.485 187.566 114.684C187.689 113.882 187.564 113.062 187.208 112.333C186.853 111.604 186.283 111 185.576 110.602C184.868 110.204 184.056 110.031 183.248 110.105C182.439 110.179 181.672 110.498 181.049 111.018C180.426 111.538 179.976 112.235 179.76 113.016Z" fill="#FFB6B6"/>
<path d="M199.925 172.453L203.278 170.299L196.555 156.358L191.606 159.536L199.925 172.453Z" fill="#FFB6B6"/>
<path d="M198.365 171.909L204.969 167.668C206.085 166.951 207.441 166.706 208.738 166.987C210.035 167.269 211.167 168.053 211.885 169.168L211.973 169.304L201.16 176.249L198.365 171.909Z" fill="#2F2E41"/>
<path d="M151.609 148.505L177.351 132.046C177.351 132.046 182.081 131.59 184.92 137.177L202.064 161.77L194.749 166.713L175.725 146.986L162.671 159.879C162.671 159.879 181.904 156.729 181.254 169.395C180.738 179.447 154.414 175.999 143.57 174.147C141.51 173.812 139.549 173.027 137.827 171.85C136.105 170.673 134.664 169.131 133.605 167.335C132.442 165.321 131.817 163.033 132.794 160.871C135.399 155.105 151.609 148.505 151.609 148.505Z" fill="#2F2E41"/>
<path d="M138.848 162.26L131.43 160.761L133.544 124.401L142.08 113.96L147.165 113.061C148.681 112.787 150.245 113.091 151.547 113.914C152.849 114.736 153.794 116.018 154.195 117.503L156.436 125.681C160.24 132.112 154.912 139.568 154.42 140.231L154.697 151.509L138.848 162.26Z" fill="#6C63FF"/>
<path d="M145.756 115.384L146.226 113.722C146.226 113.722 151.334 109.962 159.139 119.705L155.399 126.363L147.269 126.038L145.756 115.384Z" fill="#6C63FF"/>
<path d="M157.506 102.445C158.953 108.369 153.249 108.809 146.483 110.457C139.717 112.105 134.45 114.338 133.003 108.414C131.556 102.49 131.671 91.3365 141.243 89.0047C151.144 86.5926 156.059 96.5209 157.506 102.445Z" fill="#2F2E41"/>
<path d="M144.428 110.699C149.115 110.699 152.914 106.905 152.914 102.225C152.914 97.5445 149.115 93.7505 144.428 93.7505C139.742 93.7505 135.943 97.5445 135.943 102.225C135.943 106.905 139.742 110.699 144.428 110.699Z" fill="#FFB6B6"/>
<path d="M134.706 103.737L137.967 102.943L138.423 98.5702L139.693 102.522L141.251 102.143L141.517 99.5921L142.258 101.898L153.838 99.0766C153.559 97.9321 153.056 96.8539 152.359 95.9033C151.662 94.9528 150.785 94.1487 149.777 93.5368C148.769 92.925 147.65 92.5174 146.484 92.3373C145.318 92.1573 144.128 92.2083 142.982 92.4875L141.304 92.8963C140.158 93.1755 139.078 93.6774 138.127 94.3733C137.175 95.0692 136.369 95.9455 135.757 96.9521C135.144 97.9588 134.736 99.0762 134.556 100.24C134.375 101.405 134.426 102.593 134.706 103.737Z" fill="#2F2E41"/>
<path d="M240.606 114.065H183.418C183.066 114.064 182.728 113.924 182.478 113.675C182.229 113.426 182.089 113.089 182.088 112.737V77.4081C182.089 77.056 182.229 76.7184 182.478 76.4694C182.728 76.2204 183.066 76.0804 183.418 76.08H240.606C240.959 76.0804 241.297 76.2204 241.546 76.4694C241.795 76.7184 241.936 77.056 241.936 77.4081V112.737C241.936 113.089 241.795 113.426 241.546 113.675C241.297 113.924 240.959 114.064 240.606 114.065Z" fill="white"/>
<path d="M240.606 114.065H183.418C183.066 114.064 182.728 113.924 182.478 113.675C182.229 113.426 182.089 113.089 182.088 112.737V77.4081C182.089 77.056 182.229 76.7184 182.478 76.4694C182.728 76.2204 183.066 76.0804 183.418 76.08H240.606C240.959 76.0804 241.297 76.2204 241.546 76.4694C241.795 76.7184 241.936 77.056 241.936 77.4081V112.737C241.936 113.089 241.795 113.426 241.546 113.675C241.297 113.924 240.959 114.064 240.606 114.065ZM183.418 76.6112C183.207 76.6115 183.004 76.6955 182.854 76.8449C182.705 76.9943 182.62 77.1968 182.62 77.4081V112.737C182.62 112.948 182.705 113.15 182.854 113.3C183.004 113.449 183.207 113.533 183.418 113.534H240.606C240.818 113.533 241.02 113.449 241.17 113.3C241.32 113.15 241.404 112.948 241.404 112.737V77.4081C241.404 77.1968 241.32 76.9943 241.17 76.8449C241.02 76.6955 240.818 76.6115 240.606 76.6112H183.418Z" fill="#CACACA"/>
<path d="M229.301 92.1505H194.723C194.565 92.1508 194.41 92.1201 194.264 92.0601C194.119 92.0002 193.986 91.9122 193.875 91.8011C193.764 91.6901 193.675 91.5583 193.615 91.4131C193.555 91.2679 193.524 91.1123 193.524 90.9552C193.524 90.7981 193.555 90.6425 193.615 90.4973C193.675 90.3522 193.764 90.2203 193.875 90.1093C193.986 89.9983 194.119 89.9103 194.264 89.8503C194.41 89.7904 194.565 89.7596 194.723 89.7599H229.301C229.619 89.7599 229.923 89.8858 230.148 90.11C230.372 90.3342 230.498 90.6382 230.498 90.9552C230.498 91.2722 230.372 91.5763 230.148 91.8004C229.923 92.0246 229.619 92.1505 229.301 92.1505Z" fill="#6C63FF"/>
<path d="M229.301 100.385H194.723C194.565 100.386 194.409 100.355 194.263 100.295C194.117 100.236 193.985 100.148 193.873 100.037C193.762 99.9256 193.673 99.7936 193.613 99.6483C193.552 99.5029 193.521 99.3471 193.521 99.1897C193.521 99.0323 193.552 98.8765 193.613 98.7312C193.673 98.5858 193.762 98.4538 193.873 98.3428C193.985 98.2317 194.117 98.1438 194.263 98.084C194.409 98.0242 194.565 97.9938 194.723 97.9944H229.301C229.618 97.9957 229.921 98.1222 230.145 98.3462C230.368 98.5702 230.494 98.8735 230.494 99.1897C230.494 99.5059 230.368 99.8092 230.145 100.033C229.921 100.257 229.618 100.384 229.301 100.385Z" fill="#6C63FF"/>
<path d="M158.961 144.129C158.757 144.183 158.558 144.252 158.364 144.336L142.445 134.179L142.643 129.6L135.763 128.398L134.622 136.469C134.53 137.122 134.652 137.786 134.97 138.363C135.288 138.94 135.785 139.398 136.386 139.669L155.977 148.496C156.078 149.3 156.422 150.055 156.963 150.66C157.504 151.265 158.216 151.691 159.005 151.881C159.795 152.072 160.623 152.018 161.381 151.726C162.139 151.435 162.79 150.92 163.248 150.251C163.706 149.581 163.948 148.788 163.944 147.977C163.939 147.166 163.687 146.376 163.222 145.711C162.756 145.047 162.099 144.539 161.338 144.257C160.577 143.974 159.748 143.93 158.961 144.129Z" fill="#FFB6B6"/>
<path d="M143.367 115.62L142.167 114.11C142.167 114.11 137.35 112.56 134.748 119.056C132.147 125.551 134.586 131.884 134.586 131.884L145.968 132.858L146.781 122.303L143.367 115.62Z" fill="#6C63FF"/>
<path d="M266.675 177H0.325213C0.238961 177 0.156242 176.966 0.0952525 176.905C0.0342632 176.844 0 176.761 0 176.675C0 176.589 0.0342632 176.506 0.0952525 176.446C0.156242 176.385 0.238961 176.35 0.325213 176.35H266.675C266.761 176.35 266.844 176.385 266.905 176.446C266.966 176.506 267 176.589 267 176.675C267 176.761 266.966 176.844 266.905 176.905C266.844 176.966 266.761 177 266.675 177Z" fill="#CACACA"/>
</g>
<defs>
<clipPath id="clip0_236_1652">
<rect width="267" height="177" fill="white"/>
</clipPath>
</defs>
</svg>
