<svg width="29" height="29" viewBox="0 0 29 29" fill="none" xmlns="http://www.w3.org/2000/svg">
<path d="M6.625 1V4.375M22.375 1V4.375M1 24.625V7.75C1 6.85489 1.35558 5.99645 1.98851 5.36351C2.62145 4.73058 3.47989 4.375 4.375 4.375H24.625C25.5201 4.375 26.3785 4.73058 27.0115 5.36351C27.6444 5.99645 28 6.85489 28 7.75V24.625M1 24.625C1 25.5201 1.35558 26.3785 1.98851 27.0115C2.62145 27.6444 3.47989 28 4.375 28H24.625C25.5201 28 26.3785 27.6444 27.0115 27.0115C27.6444 26.3785 28 25.5201 28 24.625M1 24.625V13.375C1 12.4799 1.35558 11.6215 1.98851 10.9885C2.62145 10.3556 3.47989 10 4.375 10H24.625C25.5201 10 26.3785 10.3556 27.0115 10.9885C27.6444 11.6215 28 12.4799 28 13.375V24.625M14.5 15.625H14.512V15.637H14.5V15.625ZM14.5 19H14.512V19.012H14.5V19ZM14.5 22.375H14.512V22.387H14.5V22.375ZM11.125 19H11.137V19.012H11.125V19ZM11.125 22.375H11.137V22.387H11.125V22.375ZM7.75 19H7.762V19.012H7.75V19ZM7.75 22.375H7.762V22.387H7.75V22.375ZM17.875 15.625H17.887V15.637H17.875V15.625ZM17.875 19H17.887V19.012H17.875V19ZM17.875 22.375H17.887V22.387H17.875V22.375ZM21.25 15.625H21.262V15.637H21.25V15.625ZM21.25 19H21.262V19.012H21.25V19Z" stroke="#3E1874" stroke-width="2" stroke-linecap="round" stroke-linejoin="round"/>
</svg>
