<svg width="69" height="59" viewBox="0 0 69 59" fill="none" xmlns="http://www.w3.org/2000/svg">
<path d="M3 48.7188C20.1184 48.7048 37.1624 50.9717 53.682 55.4595C56.0145 56.0947 58.3438 54.3622 58.3438 51.9431V48.7188M7.8125 3V5.40625C7.8125 6.04443 7.55899 6.65647 7.10773 7.10773C6.65647 7.55899 6.04443 7.8125 5.40625 7.8125H3M3 7.8125V6.60938C3 4.617 4.617 3 6.60938 3H60.75M3 7.8125V36.6875M60.75 3V5.40625C60.75 6.7345 61.828 7.8125 63.1562 7.8125H65.5625M60.75 3H61.9531C63.9455 3 65.5625 4.617 65.5625 6.60938V37.8906C65.5625 39.883 63.9455 41.5 61.9531 41.5H60.75M3 36.6875V37.8906C3 38.8479 3.38027 39.766 4.05716 40.4428C4.73405 41.1197 5.65211 41.5 6.60938 41.5H7.8125M3 36.6875H5.40625C6.04443 36.6875 6.65647 36.941 7.10773 37.3923C7.55899 37.8435 7.8125 38.4556 7.8125 39.0938V41.5M60.75 41.5V39.0938C60.75 38.4556 61.0035 37.8435 61.4548 37.3923C61.906 36.941 62.5181 36.6875 63.1562 36.6875H65.5625M60.75 41.5H7.8125M43.9062 22.25C43.9062 24.8027 42.8922 27.2509 41.0872 29.0559C39.2821 30.8609 36.834 31.875 34.2812 31.875C31.7285 31.875 29.2804 30.8609 27.4753 29.0559C25.6703 27.2509 24.6562 24.8027 24.6562 22.25C24.6562 19.6973 25.6703 17.2491 27.4753 15.4441C29.2804 13.6391 31.7285 12.625 34.2812 12.625C36.834 12.625 39.2821 13.6391 41.0872 15.4441C42.8922 17.2491 43.9062 19.6973 43.9062 22.25ZM53.5312 22.25H53.5569V22.2757H53.5312V22.25ZM15.0312 22.25H15.0569V22.2757H15.0312V22.25Z" stroke="#2A7E87" stroke-width="6" stroke-linecap="round" stroke-linejoin="round"/>
</svg>
