<svg width="29" height="28" viewBox="0 0 29 28" fill="none" xmlns="http://www.w3.org/2000/svg">
<path d="M3.5768 0.00943923C3.53374 0.0172039 3.40063 0.0443803 3.28318 0.0676744C2.74682 0.168616 2.18698 0.397675 1.76808 0.684969C1.46662 0.894616 0.922438 1.4265 0.730604 1.70603C0.495704 2.04767 0.24123 2.60285 0.119865 3.03379L0.0141607 3.42203L0.00241572 13.7491C-0.00541425 20.2947 0.00633071 24.1887 0.0298206 24.3867C0.166845 25.4854 0.683624 26.4017 1.57233 27.1044C2.06953 27.4965 2.53933 27.7139 3.28318 27.8886C3.56114 27.9546 4.13273 27.9585 14.1081 27.9585C24.0835 27.9585 24.6551 27.9546 24.9331 27.8886C25.6926 27.71 26.1506 27.4965 26.6831 27.0733C27.3878 26.5181 27.8497 25.8154 28.0964 24.9186L28.2021 24.542L28.2138 14.1956C28.2217 7.08697 28.2099 3.75203 28.1825 3.53462C28.0611 2.61062 27.6814 1.82638 27.0432 1.18967C26.4717 0.618968 25.9979 0.351086 25.0897 0.0909688L24.796 0.00555587L14.2256 0.00167441C8.41181 -0.00220794 3.61987 0.00167452 3.5768 0.00943923ZM14.5192 5.07979C14.7267 5.14579 14.8167 5.20791 15.0125 5.39815C15.3413 5.72426 15.3883 5.86791 15.4118 6.6172C15.4275 7.18403 15.4314 7.20732 15.5136 7.22673C15.5567 7.23838 15.7642 7.27332 15.9677 7.30438C16.5902 7.4092 17.3967 7.62661 17.7177 7.77803C18.3206 8.06532 18.5986 8.47297 18.5986 9.07473C18.5986 9.31932 18.579 9.40861 18.4929 9.57555C18.3363 9.87838 18.0309 10.1657 17.7491 10.2705C17.4907 10.3676 17.0444 10.3908 16.8212 10.3171C16.4689 10.2045 16.3005 10.1579 15.8503 10.0453C14.7267 9.77355 13.9515 9.77356 13.0119 10.0492C12.3425 10.2472 11.9588 10.5772 11.8413 11.0625C11.8061 11.2139 11.9392 11.4818 12.1232 11.6254C12.4286 11.8623 13.2468 12.2039 13.9594 12.3864C15.7994 12.86 16.5354 13.1163 17.4946 13.6249C18.2267 14.0092 18.8061 14.6032 19.1428 15.2943C19.3934 15.8223 19.4325 16.0203 19.4286 16.7967V17.4761L19.272 17.9226C18.8648 19.1028 18.1875 19.8172 17.0483 20.2753C16.6098 20.4461 16.1831 20.5626 15.772 20.617L15.4392 20.6636L15.4196 21.3197C15.3962 21.937 15.3883 21.9952 15.2904 22.1971C15.1573 22.465 14.8989 22.7096 14.6053 22.8454C14.2843 22.9891 13.8419 22.993 13.5365 22.8493C13.2233 22.7018 13.0119 22.496 12.8671 22.1971C12.7379 21.9408 12.7379 21.937 12.7261 21.2381L12.7105 20.5393L12.178 20.4112C11.3833 20.2171 10.107 19.8327 9.86036 19.7085C9.59022 19.5726 9.30443 19.2814 9.18698 19.0291C9.11259 18.866 9.09693 18.7728 9.10085 18.4428C9.10085 18.0624 9.10476 18.0468 9.24962 17.8139C9.40622 17.5577 9.64503 17.3403 9.86819 17.2471C10.2558 17.084 10.6747 17.1384 11.8139 17.4956C13.3486 17.9731 13.8693 18.0663 14.7541 18.0197C15.9129 17.9537 16.6098 17.5848 16.7547 16.9598C16.8055 16.7346 16.7272 16.4745 16.5511 16.2765C16.4336 16.1445 16.2809 16.0436 15.9168 15.8688C15.3609 15.5932 15.0164 15.4728 14.4213 15.337C14.1864 15.2865 13.9202 15.2089 13.8341 15.1661C13.7479 15.1273 13.5013 15.0497 13.286 14.9953C12.5265 14.8051 11.626 14.4673 10.9957 14.1296C10.2793 13.7491 9.69201 13.159 9.39056 12.5145C9.17132 12.0525 9.10476 11.7147 9.10476 11.0703C9.10476 10.5112 9.11259 10.4724 9.23396 10.1385C9.49626 9.41638 9.84861 8.87285 10.3419 8.43803C10.9213 7.92944 11.3794 7.69261 12.2172 7.46356L12.6987 7.33156L12.7222 6.69873C12.7418 6.17073 12.7574 6.0232 12.8318 5.84462C12.9884 5.43697 13.333 5.13803 13.7753 5.01767C14.0181 4.95167 14.1551 4.96332 14.5192 5.07979Z" fill="#2A7E87"/>
</svg>
