<svg width="38" height="30" viewBox="0 0 38 30" fill="none" xmlns="http://www.w3.org/2000/svg">
<path d="M24.3846 9.4H31.1154M24.3846 15H31.1154M24.3846 20.6H31.1154M5.53846 29H32.4615C33.5326 29 34.5598 28.5575 35.3172 27.7698C36.0745 26.9822 36.5 25.9139 36.5 24.8V5.2C36.5 4.08609 36.0745 3.0178 35.3172 2.23015C34.5598 1.4425 33.5326 1 32.4615 1H5.53846C4.46739 1 3.4402 1.4425 2.68284 2.23015C1.92548 3.0178 1.5 4.08609 1.5 5.2V24.8C1.5 25.9139 1.92548 26.9822 2.68284 27.7698C3.4402 28.5575 4.46739 29 5.53846 29ZM16.3077 10.1C16.3077 10.5596 16.2206 11.0148 16.0515 11.4394C15.8824 11.864 15.6345 12.2499 15.322 12.5749C15.0095 12.8999 14.6385 13.1577 14.2302 13.3336C13.8219 13.5095 13.3843 13.6 12.9423 13.6C12.5004 13.6 12.0627 13.5095 11.6544 13.3336C11.2461 13.1577 10.8751 12.8999 10.5626 12.5749C10.2501 12.2499 10.0022 11.864 9.8331 11.4394C9.66397 11.0148 9.57692 10.5596 9.57692 10.1C9.57692 9.17174 9.93149 8.2815 10.5626 7.62513C11.1938 6.96875 12.0498 6.6 12.9423 6.6C13.8349 6.6 14.6909 6.96875 15.322 7.62513C15.9531 8.2815 16.3077 9.17174 16.3077 10.1ZM18.6303 21.9272C16.879 22.8973 14.9247 23.4032 12.9405 23.4C10.9575 23.4026 9.00454 22.8967 7.25436 21.9272C7.68205 20.7162 8.45682 19.6709 9.47402 18.9324C10.4912 18.194 11.7018 17.7981 12.9423 17.7981C14.1828 17.7981 15.3934 18.194 16.4106 18.9324C17.4278 19.6709 18.2026 20.7162 18.6303 21.9272Z" stroke="#471B85" stroke-width="1.5" stroke-linecap="round" stroke-linejoin="round"/>
</svg>
