<svg width="24" height="25" viewBox="0 0 24 25" fill="none" xmlns="http://www.w3.org/2000/svg">
<path d="M0 2.375C0 1.4416 0.766071 0.6875 1.71429 0.6875H4.28571H6.85714C7.80536 0.6875 8.57143 1.4416 8.57143 2.375C8.57143 3.3084 7.80536 4.0625 6.85714 4.0625H6V9.96875H18V4.0625H17.1429C16.1946 4.0625 15.4286 3.3084 15.4286 2.375C15.4286 1.4416 16.1946 0.6875 17.1429 0.6875H19.7143H22.2857C23.2339 0.6875 24 1.4416 24 2.375C24 3.3084 23.2339 4.0625 22.2857 4.0625H21.4286V11.6562V20.9375H22.2857C23.2339 20.9375 24 21.6916 24 22.625C24 23.5584 23.2339 24.3125 22.2857 24.3125H19.7143H17.1429C16.1946 24.3125 15.4286 23.5584 15.4286 22.625C15.4286 21.6916 16.1946 20.9375 17.1429 20.9375H18V13.3438H6V20.9375H6.85714C7.80536 20.9375 8.57143 21.6916 8.57143 22.625C8.57143 23.5584 7.80536 24.3125 6.85714 24.3125H4.28571H1.71429C0.766071 24.3125 0 23.5584 0 22.625C0 21.6916 0.766071 20.9375 1.71429 20.9375H2.57143V11.6562V4.0625H1.71429C0.766071 4.0625 0 3.3084 0 2.375Z" fill="#3E1874"/>
</svg>
