<svg width="14" height="26" viewBox="0 0 14 26" fill="none" xmlns="http://www.w3.org/2000/svg">
<path d="M3.09375 20.8125H5.4375V14.5625H3.09375C1.79492 14.5625 0.75 13.5176 0.75 12.2188C0.75 10.9199 1.79492 9.875 3.09375 9.875H7.78125C9.08008 9.875 10.125 10.9199 10.125 12.2188V20.8125H10.9062C12.2051 20.8125 13.25 21.8574 13.25 23.1562C13.25 24.4551 12.2051 25.5 10.9062 25.5H3.09375C1.79492 25.5 0.75 24.4551 0.75 23.1562C0.75 21.8574 1.79492 20.8125 3.09375 20.8125ZM7 0.5C7.8288 0.5 8.62366 0.829241 9.20971 1.41529C9.79576 2.00134 10.125 2.7962 10.125 3.625C10.125 4.4538 9.79576 5.24866 9.20971 5.83471C8.62366 6.42076 7.8288 6.75 7 6.75C6.1712 6.75 5.37634 6.42076 4.79029 5.83471C4.20424 5.24866 3.875 4.4538 3.875 3.625C3.875 2.7962 4.20424 2.00134 4.79029 1.41529C5.37634 0.829241 6.1712 0.5 7 0.5Z" fill="#F5F2FD"/>
</svg>
