<svg width="10" height="22" viewBox="0 0 10 22" fill="none" xmlns="http://www.w3.org/2000/svg">
<path d="M2.46079 2.58859C2.46079 2.02845 2.694 1.49124 3.10911 1.09516C3.52421 0.69908 4.08722 0.476563 4.67427 0.476562C5.26132 0.476563 5.82433 0.69908 6.23944 1.09516C6.65454 1.49124 6.88775 2.02845 6.88775 2.58859C6.88775 3.14874 6.65454 3.68594 6.23944 4.08203C5.82433 4.47811 5.26132 4.70062 4.67427 4.70062C4.08722 4.70062 3.52421 4.47811 3.10911 4.08203C2.694 3.68594 2.46079 3.14874 2.46079 2.58859ZM0.247314 8.92469C0.247314 8.14588 0.906746 7.51667 1.72297 7.51667H4.67427C5.49049 7.51667 6.14992 8.14588 6.14992 8.92469V18.7808H7.62558C8.4418 18.7808 9.10123 19.41 9.10123 20.1889C9.10123 20.9677 8.4418 21.5969 7.62558 21.5969H1.72297C0.906746 21.5969 0.247314 20.9677 0.247314 20.1889C0.247314 19.41 0.906746 18.7808 1.72297 18.7808H3.19862V10.3327H1.72297C0.906746 10.3327 0.247314 9.7035 0.247314 8.92469Z" fill="#2A7E87"/>
</svg>
