<svg width="55" height="49" viewBox="0 0 55 49" fill="none" xmlns="http://www.w3.org/2000/svg">
<path d="M39.9367 32.1558C41.0867 31.3705 42.4356 30.9268 43.8272 30.8761C45.2188 30.8254 46.5964 31.1697 47.8005 31.8692C49.0046 32.5687 49.986 33.5949 50.6313 34.8289C51.2765 36.063 51.5592 37.4545 51.4466 38.8425C48.4971 39.8733 45.3642 40.2745 42.25 40.02C42.2404 37.2338 41.4381 34.5054 39.9367 32.1583C38.6041 30.0681 36.7658 28.3479 34.5919 27.1568C32.418 25.9656 29.9788 25.3421 27.5 25.3438C25.0216 25.3425 22.5829 25.9663 20.4095 27.1574C18.2361 28.3485 16.3982 30.0685 15.0658 32.1583M42.2476 40.0175L42.25 40.0938C42.25 40.6469 42.2205 41.1926 42.1591 41.731C37.6981 44.2904 32.6431 45.6332 27.5 45.625C22.1654 45.625 17.1578 44.209 12.841 41.731C12.7778 41.1621 12.7474 40.59 12.75 40.0175M12.75 40.0175C9.63685 40.2812 6.50562 39.8816 3.55831 38.8449C3.44609 37.4573 3.7289 36.0663 4.37405 34.8327C5.0192 33.599 6.00034 32.5732 7.20402 31.8738C8.4077 31.1744 9.78476 30.8299 11.176 30.8802C12.5672 30.9306 13.9158 31.3737 15.0658 32.1583M12.75 40.0175C12.7588 37.2316 13.5653 34.5056 15.0658 32.1583M34.875 10.5938C34.875 12.5497 34.098 14.4256 32.7149 15.8087C31.3318 17.1917 29.456 17.9688 27.5 17.9688C25.544 17.9688 23.6682 17.1917 22.2851 15.8087C20.902 14.4256 20.125 12.5497 20.125 10.5938C20.125 8.63778 20.902 6.76192 22.2851 5.37884C23.6682 3.99576 25.544 3.21875 27.5 3.21875C29.456 3.21875 31.3318 3.99576 32.7149 5.37884C34.098 6.76192 34.875 8.63778 34.875 10.5938ZM49.625 17.9688C49.625 18.6951 49.4819 19.4144 49.204 20.0855C48.926 20.7566 48.5186 21.3663 48.0049 21.8799C47.4913 22.3936 46.8816 22.801 46.2105 23.079C45.5394 23.3569 44.8201 23.5 44.0938 23.5C43.3674 23.5 42.6481 23.3569 41.977 23.079C41.306 22.801 40.6962 22.3936 40.1826 21.8799C39.669 21.3663 39.2615 20.7566 38.9836 20.0855C38.7056 19.4144 38.5625 18.6951 38.5625 17.9688C38.5625 16.5018 39.1453 15.0949 40.1826 14.0576C41.2199 13.0203 42.6268 12.4375 44.0938 12.4375C45.5607 12.4375 46.9676 13.0203 48.0049 14.0576C49.0423 15.0949 49.625 16.5018 49.625 17.9688ZM16.4375 17.9688C16.4375 18.6951 16.2944 19.4144 16.0165 20.0855C15.7385 20.7566 15.3311 21.3663 14.8174 21.8799C14.3038 22.3936 13.6941 22.801 13.023 23.079C12.3519 23.3569 11.6326 23.5 10.9063 23.5C10.1799 23.5 9.46063 23.3569 8.78955 23.079C8.11846 22.801 7.5087 22.3936 6.99508 21.8799C6.48146 21.3663 6.07403 20.7566 5.79606 20.0855C5.51808 19.4144 5.37501 18.6951 5.37501 17.9688C5.37501 16.5018 5.95777 15.0949 6.99508 14.0576C8.03239 13.0203 9.43929 12.4375 10.9063 12.4375C12.3732 12.4375 13.7801 13.0203 14.8174 14.0576C15.8548 15.0949 16.4375 16.5018 16.4375 17.9688Z" stroke="#3E1874" stroke-width="6" stroke-linecap="round" stroke-linejoin="round"/>
</svg>
