<svg width="54" height="54" viewBox="0 0 54 54" fill="none" xmlns="http://www.w3.org/2000/svg">
<path d="M42.375 14.8125V22.6875M42.375 22.6875V30.5625M42.375 22.6875H50.25M42.375 22.6875H34.5M28.5938 11.8594C28.5938 13.0228 28.3646 14.1748 27.9194 15.2497C27.4741 16.3246 26.8216 17.3012 25.9989 18.1239C25.1762 18.9466 24.1996 19.5991 23.1247 20.0444C22.0498 20.4896 20.8978 20.7188 19.7344 20.7188C18.5709 20.7188 17.4189 20.4896 16.344 20.0444C15.2692 19.5991 14.2925 18.9466 13.4699 18.1239C12.6472 17.3012 11.9946 16.3246 11.5494 15.2497C11.1042 14.1748 10.875 13.0228 10.875 11.8594C10.875 9.50972 11.8084 7.25631 13.4699 5.59485C15.1313 3.9334 17.3847 3 19.7344 3C22.084 3 24.3374 3.9334 25.9989 5.59485C27.6604 7.25631 28.5937 9.50972 28.5938 11.8594ZM3 45.6169V45.3281C3 40.8899 4.76308 36.6334 7.90138 33.4951C11.0397 30.3568 15.2961 28.5938 19.7344 28.5938C24.1726 28.5938 28.4291 30.3568 31.5674 33.4951C34.7057 36.6334 36.4688 40.8899 36.4688 45.3281V45.6142C31.4169 48.6569 25.6291 50.2599 19.7317 50.25C13.6129 50.25 7.88775 48.5569 3 45.6142V45.6169Z" stroke="#3E1874" stroke-width="6" stroke-linecap="round" stroke-linejoin="round"/>
</svg>
