<svg width="32" height="32" viewBox="0 0 32 32" fill="none" xmlns="http://www.w3.org/2000/svg">
<path d="M21.7692 5.60865C22.9933 5.60865 24.1672 6.09505 25.0328 6.96083C25.8984 7.82661 26.3846 9.00086 26.3846 10.2253M31 10.2253C31.0002 11.572 30.7059 12.9024 30.1377 14.1233C29.5695 15.3442 28.7412 16.4259 27.7109 17.2928C26.6806 18.1596 25.4731 18.7905 24.1732 19.1412C22.8734 19.492 21.5125 19.554 20.1862 19.3231C19.32 19.1738 18.4031 19.3631 17.7815 19.9848L13.6923 24.0751H10.2308V27.5375H6.76923V31H1V26.6635C1 25.7448 1.36462 24.863 2.01385 24.2151L12.0123 14.214C12.6338 13.5923 12.8231 12.6751 12.6738 11.8088C12.4557 10.5487 12.5016 9.25701 12.8087 8.01561C13.1157 6.77421 13.6773 5.61014 14.4577 4.5972C15.2381 3.58425 16.2203 2.7445 17.3422 2.13117C18.464 1.51785 19.7011 1.14432 20.9748 1.03426C22.2486 0.924199 23.5313 1.08001 24.7417 1.49181C25.9521 1.90361 27.0637 2.56243 28.0063 3.42651C28.9488 4.29059 29.7015 5.34109 30.2169 6.51143C30.7322 7.68177 30.9989 8.94643 31 10.2253Z" stroke="#3E1874" stroke-width="1.5" stroke-linecap="round" stroke-linejoin="round"/>
</svg>
