<svg width="28" height="30" viewBox="0 0 28 30" fill="none" xmlns="http://www.w3.org/2000/svg">
<path d="M17.5455 10.3333V4.5C17.5455 3.57174 17.1719 2.6815 16.507 2.02513C15.8421 1.36875 14.9403 1 14 1H4.54545C3.60514 1 2.70334 1.36875 2.03844 2.02513C1.37354 2.6815 1 3.57174 1 4.5V25.5C1 26.4283 1.37354 27.3185 2.03844 27.9749C2.70334 28.6313 3.60514 29 4.54545 29H14C14.9403 29 15.8421 28.6313 16.507 27.9749C17.1719 27.3185 17.5455 26.4283 17.5455 25.5V19.6667M11.6364 10.3333L6.90909 15M6.90909 15L11.6364 19.6667M6.90909 15H27" stroke="#FC3A3A" stroke-width="2" stroke-linecap="round" stroke-linejoin="round"/>
</svg>
