<svg width="113" height="118" viewBox="0 0 113 118" fill="none" xmlns="http://www.w3.org/2000/svg">
<path fill-rule="evenodd" clip-rule="evenodd" d="M28.3686 0.272436C25.9071 0.754925 24.786 3.17175 25.2491 6.99661C25.3139 7.53216 24.9079 10.0741 24.3463 12.6458C22.1924 22.5103 21.9194 34.0009 23.603 43.9267C24.358 48.3767 26.3161 55.1608 27.523 57.5094C28.6416 59.6853 27.5775 59.0616 24.1865 55.5527C14.5908 45.6254 9.74816 31.5899 11.1642 17.81C11.6804 12.7865 12.2438 10.6481 13.0515 10.6481C13.7597 10.6481 15.0256 7.98641 15.0256 6.49659C15.0256 4.54034 12.5909 2.37134 10.395 2.37134C7.11747 2.37134 4.53845 6.50195 6.19037 9.10524C6.42531 9.47478 6.32198 11.0435 5.95006 12.7568C5.04587 16.9215 5.07171 27.5133 5.99784 32.3674C9.38746 50.1372 21.4934 65.2083 37.7883 71.9437C40.8577 73.2125 41.0956 73.4174 40.9971 74.7057C40.9391 75.4711 39.8979 78.1493 38.6842 80.6577C31.7071 95.072 20.52 105.085 4.30205 111.431C2.02329 112.322 0.0949962 113.098 0.0165192 113.154C-0.180404 113.296 1.43935 117.42 1.89364 117.934C2.33818 118.437 8.85762 115.983 14.2706 113.275C20.2753 110.271 24.5218 107.244 29.7583 102.236C37.1522 95.164 42.1869 87.8356 45.7764 78.9186C46.8259 76.3124 47.6155 74.9715 48.0123 75.1234C48.3496 75.2529 50.9359 75.6269 53.7601 75.955C63.2787 77.0602 73.2434 75.1395 83.0228 70.3146C94.8206 64.4946 103.843 54.7192 108.82 42.3634C109.644 40.3171 110.923 38.0507 111.66 37.3262C112.627 36.3763 113 35.5243 113 34.2662C113 29.6098 107.893 27.7013 104.909 31.2428C103.881 32.4633 103.708 33.0491 103.958 34.4717C104.499 37.5482 104.37 38.1919 102.369 42.4583C98.4174 50.8807 92.768 57.4851 85.2367 62.4862C81.5668 64.923 74.1558 68.2293 71.0806 68.8014L69.3746 69.1184L70.8369 68.0482C74.1095 65.6528 81.035 58.0757 83.809 53.8564C87.1172 48.8237 90.1457 42.7607 91.8478 37.7624C92.4727 35.9269 93.6493 33.6684 94.4619 32.7438C96.4594 30.472 96.4779 28.1511 94.515 26.1905C91.0567 22.7362 85.5657 26.302 87.1874 30.9487C87.6363 32.2345 87.4725 33.0612 86.0332 36.7838C80.6377 50.7385 71.9897 61.5008 62.2654 66.3637C59.8209 67.5857 57.5138 68.5857 57.139 68.5857C56.3284 68.5857 56.2363 67.8063 56.9918 67.3398C57.2857 67.1582 58.8445 65.0092 60.4555 62.5641C65.7612 54.5108 71.2278 42.6102 75.469 29.8795C77.0176 25.2319 77.9452 23.2074 78.96 22.2595C81.8885 19.5243 79.7911 14.5431 75.7112 14.5431C72.3791 14.5431 69.9858 18.4064 71.531 21.2902C72.3645 22.8457 66.9691 37.759 61.5537 48.8675C55.9072 60.4501 49.3941 68.8477 46.3306 68.4952C44.6889 68.3063 43.0848 65.3588 42.2708 61.0358C41.349 56.1403 42.0046 41.8156 43.5191 33.7745C45.5278 23.1067 46.0879 21.3013 47.8387 19.8398C49.0929 18.7925 49.3678 18.2068 49.3678 16.5807C49.3678 13.0372 46.3194 10.9578 43.0965 12.3025C40.9552 13.1964 40.1919 14.6419 40.5302 17.162C40.692 18.3655 40.4117 20.7931 39.8219 23.299C37.0382 35.126 35.8098 45.2578 36.0555 54.3623C36.151 57.9009 36.0877 60.7963 35.9146 60.7958C35.7421 60.7958 34.7092 58.9881 33.6198 56.7791C28.2785 45.9472 26.8162 28.9725 29.9192 13.8128C30.5811 10.579 30.9979 9.63983 32.3759 8.28C35.0645 5.62655 34.5664 1.97648 31.3313 0.625905C30.4232 0.24712 29.6179 -0.0333171 29.5424 0.00319821C29.4668 0.0397135 28.9385 0.160943 28.3686 0.272436Z" fill="#6527BE"/>
</svg>
