<svg width="181" height="126" viewBox="0 0 181 126" fill="none" xmlns="http://www.w3.org/2000/svg">
<path fill-rule="evenodd" clip-rule="evenodd" d="M28.3686 0.272436C25.9071 0.754925 24.786 3.17175 25.2491 6.99661C25.3139 7.53216 24.9079 10.0741 24.3463 12.6458C22.1924 22.5103 21.9194 34.0009 23.603 43.9267C24.358 48.3767 26.3161 55.1608 27.523 57.5094C28.6416 59.6853 27.5775 59.0616 24.1865 55.5527C14.5908 45.6254 9.74816 31.5899 11.1642 17.81C11.6804 12.7865 12.2438 10.6481 13.0515 10.6481C13.7597 10.6481 15.0256 7.98641 15.0256 6.49659C15.0256 4.54034 12.5909 2.37134 10.395 2.37134C7.11747 2.37134 4.53845 6.50195 6.19037 9.10524C6.42531 9.47478 6.32198 11.0435 5.95006 12.7568C5.04587 16.9215 5.07171 27.5133 5.99784 32.3674C9.38746 50.1372 21.4934 65.2083 37.7883 71.9437C40.8577 73.2125 41.0956 73.4174 40.9971 74.7057C40.9391 75.4711 39.8979 78.1493 38.6842 80.6577C31.7071 95.072 20.52 105.085 4.30205 111.431C2.02329 112.322 0.0949962 113.098 0.0165192 113.154C-0.180404 113.296 1.43935 117.42 1.89364 117.934C2.33818 118.437 8.85762 115.983 14.2706 113.275C20.2753 110.271 24.5218 107.244 29.7583 102.236C37.1522 95.164 42.1869 87.8356 45.7764 78.9186C46.8259 76.3124 47.6155 74.9715 48.0123 75.1234C48.3496 75.2529 50.9359 75.6269 53.7601 75.955C63.2787 77.0602 73.2434 75.1395 83.0228 70.3146C94.8206 64.4946 103.843 54.7192 108.82 42.3634C109.644 40.3171 110.923 38.0507 111.66 37.3262C112.627 36.3763 113 35.5243 113 34.2662C113 29.6098 107.893 27.7013 104.909 31.2428C103.881 32.4633 103.708 33.0491 103.958 34.4717C104.499 37.5482 104.37 38.1919 102.369 42.4583C98.4174 50.8807 92.768 57.4851 85.2367 62.4862C81.5668 64.923 74.1558 68.2293 71.0806 68.8014L69.3746 69.1184L70.8369 68.0482C74.1095 65.6528 81.035 58.0757 83.809 53.8564C87.1172 48.8237 90.1457 42.7607 91.8478 37.7624C92.4727 35.9269 93.6493 33.6684 94.4619 32.7438C96.4594 30.472 96.4779 28.1511 94.515 26.1905C91.0567 22.7362 85.5657 26.302 87.1874 30.9487C87.6363 32.2345 87.4725 33.0612 86.0332 36.7838C80.6377 50.7385 71.9897 61.5008 62.2654 66.3637C59.8209 67.5857 57.5138 68.5857 57.139 68.5857C56.3284 68.5857 56.2363 67.8063 56.9918 67.3398C57.2857 67.1582 58.8445 65.0092 60.4555 62.5641C65.7612 54.5108 71.2278 42.6102 75.469 29.8795C77.0176 25.2319 77.9452 23.2074 78.96 22.2595C81.8885 19.5243 79.7911 14.5431 75.7112 14.5431C72.3791 14.5431 69.9858 18.4064 71.531 21.2902C72.3645 22.8457 66.9691 37.759 61.5537 48.8675C55.9072 60.4501 49.3941 68.8477 46.3306 68.4952C44.6889 68.3063 43.0848 65.3588 42.2708 61.0358C41.349 56.1403 42.0046 41.8156 43.5191 33.7745C45.5278 23.1067 46.0879 21.3013 47.8387 19.8398C49.0929 18.7925 49.3678 18.2068 49.3678 16.5807C49.3678 13.0372 46.3194 10.9578 43.0965 12.3025C40.9552 13.1964 40.1919 14.6419 40.5302 17.162C40.692 18.3655 40.4117 20.7931 39.8219 23.299C37.0382 35.126 35.8098 45.2578 36.0555 54.3623C36.151 57.9009 36.0877 60.7963 35.9146 60.7958C35.7421 60.7958 34.7092 58.9881 33.6198 56.7791C28.2785 45.9472 26.8162 28.9725 29.9192 13.8128C30.5811 10.579 30.9979 9.63983 32.3759 8.28C35.0645 5.62655 34.5664 1.97648 31.3313 0.625905C30.4232 0.24712 29.6179 -0.0333171 29.5424 0.00319821C29.4668 0.0397135 28.9385 0.160943 28.3686 0.272436Z" fill="#6527BE"/>
<path d="M69.255 115.543C69.8103 115.543 70.088 115.331 70.088 114.906C70.088 114.645 69.9083 114.318 69.549 113.926L60.631 105.057V98.589L79.79 91.582L81.946 100.451L72.489 103.979L76.262 107.752C77.144 108.634 77.8627 109.451 78.418 110.202C78.9733 110.921 79.4143 111.623 79.741 112.309C80.0677 112.962 80.28 113.616 80.378 114.269C80.5087 114.922 80.574 115.625 80.574 116.376C80.574 117.911 80.329 119.234 79.839 120.345C79.3817 121.423 78.7283 122.305 77.879 122.991C77.0623 123.677 76.0987 124.183 74.988 124.51C73.8773 124.837 72.685 125 71.411 125H55.535C53.8363 125 52.399 124.755 51.223 124.265C50.0797 123.742 49.1487 123.056 48.43 122.207C47.7113 121.358 47.1887 120.361 46.862 119.218C46.5353 118.042 46.372 116.817 46.372 115.543V107.458H55.241V114.759C55.241 114.988 55.3227 115.184 55.486 115.347C55.6493 115.478 55.8453 115.543 56.074 115.543H69.255ZM96.223 115.004C96.223 114.873 96.1903 114.71 96.125 114.514C96.0597 114.318 95.9127 113.942 95.684 113.387L91.666 102.901L99.996 99.128L105.974 114.759C106.17 115.282 106.529 115.543 107.052 115.543H108.62C108.816 115.543 108.979 115.592 109.11 115.69C109.273 115.755 109.388 115.935 109.453 116.229C109.551 116.523 109.616 116.98 109.649 117.601C109.682 118.222 109.698 119.071 109.698 120.149C109.698 121.292 109.682 122.191 109.649 122.844C109.616 123.497 109.551 123.987 109.453 124.314C109.388 124.641 109.273 124.837 109.11 124.902C108.979 124.967 108.816 125 108.62 125H106.219C105.566 125 104.765 124.902 103.818 124.706C102.871 124.51 102.054 124.069 101.368 123.383C100.551 124.069 99.8 124.51 99.114 124.706C98.4607 124.902 97.8563 125 97.301 125H84.904L84.12 115.543H95.586C96.0107 115.543 96.223 115.363 96.223 115.004ZM110.505 115.543C110.733 115.543 110.929 115.478 111.093 115.347C111.256 115.184 111.338 114.988 111.338 114.759V107.458H120.256V113.142C122.314 110.006 124.421 107.703 126.577 106.233C128.733 104.73 130.938 103.979 133.192 103.979C134.531 103.979 135.756 104.24 136.867 104.763C137.977 105.253 138.941 105.955 139.758 106.87C140.574 107.785 141.195 108.879 141.62 110.153C142.077 111.394 142.306 112.75 142.306 114.22C142.306 115.559 142.093 116.882 141.669 118.189C141.277 119.463 140.64 120.606 139.758 121.619C138.876 122.632 137.749 123.448 136.377 124.069C135.037 124.69 133.437 125 131.575 125H120.795C119.717 125 118.704 124.902 117.757 124.706C116.842 124.51 116.042 124.069 115.356 123.383C114.572 124.069 113.771 124.51 112.955 124.706C112.171 124.902 111.452 125 110.799 125H108.643C108.447 125 108.283 124.967 108.153 124.902C107.989 124.837 107.875 124.657 107.81 124.363C107.712 124.036 107.646 123.563 107.614 122.942C107.581 122.321 107.565 121.472 107.565 120.394C107.565 119.251 107.581 118.352 107.614 117.699C107.646 117.046 107.712 116.572 107.81 116.278C107.875 115.951 107.989 115.755 108.153 115.69C108.283 115.592 108.447 115.543 108.643 115.543H110.505ZM132.114 115.837C132.669 115.837 133.077 115.69 133.339 115.396C133.6 115.069 133.731 114.71 133.731 114.318C133.731 113.959 133.584 113.632 133.29 113.338C133.028 113.011 132.669 112.848 132.212 112.848C131.754 112.848 131.166 113.109 130.448 113.632C129.762 114.155 128.88 114.89 127.802 115.837H132.114ZM156.851 115.543C157.047 115.543 157.21 115.592 157.341 115.69C157.504 115.755 157.619 115.935 157.684 116.229C157.782 116.523 157.847 116.98 157.88 117.601C157.913 118.222 157.929 119.071 157.929 120.149C157.929 121.292 157.913 122.191 157.88 122.844C157.847 123.497 157.782 123.987 157.684 124.314C157.619 124.641 157.504 124.837 157.341 124.902C157.21 124.967 157.047 125 156.851 125H154.45C152.751 125 151.314 124.755 150.138 124.265C148.995 123.742 148.064 123.056 147.345 122.207C146.626 121.358 146.104 120.361 145.777 119.218C145.45 118.042 145.287 116.817 145.287 115.543V95.11H154.205V114.759C154.205 115.282 154.466 115.543 154.989 115.543H156.851ZM160.063 115.543C159.867 114.988 159.72 114.449 159.622 113.926C159.557 113.403 159.524 112.881 159.524 112.358C159.524 111.28 159.72 110.186 160.112 109.075C160.537 107.932 161.157 106.919 161.974 106.037C162.791 105.122 163.82 104.371 165.061 103.783C166.335 103.195 167.805 102.901 169.471 102.901C170.876 102.901 172.182 103.097 173.391 103.489C174.6 103.881 175.629 104.502 176.478 105.351C177.327 106.2 177.997 107.311 178.487 108.683C178.977 110.055 179.222 111.721 179.222 113.681V115.543C179.222 116.915 178.993 118.173 178.536 119.316C178.111 120.459 177.442 121.456 176.527 122.305C175.612 123.154 174.453 123.824 173.048 124.314C171.676 124.771 170.043 125 168.148 125H156.829C156.633 125 156.47 124.967 156.339 124.902C156.176 124.837 156.061 124.657 155.996 124.363C155.898 124.036 155.833 123.563 155.8 122.942C155.767 122.321 155.751 121.472 155.751 120.394C155.751 119.251 155.767 118.352 155.8 117.699C155.833 117.046 155.898 116.572 155.996 116.278C156.061 115.951 156.176 115.755 156.339 115.69C156.47 115.592 156.633 115.543 156.829 115.543H160.063ZM170.549 115.837C170.712 115.576 170.794 115.249 170.794 114.857C170.827 114.465 170.843 114.073 170.843 113.681C170.843 113.126 170.729 112.636 170.5 112.211C170.304 111.754 169.879 111.525 169.226 111.525C168.834 111.525 168.507 111.656 168.246 111.917C168.017 112.146 167.903 112.456 167.903 112.848C167.903 113.24 168.034 113.697 168.295 114.22C168.589 114.743 169.34 115.282 170.549 115.837ZM176.233 100.206H162.219V93.493H176.233V100.206Z" fill="#6527BE"/>
</svg>
