<svg width="51" height="55" viewBox="0 0 51 55" fill="none" xmlns="http://www.w3.org/2000/svg">
<path d="M31.9091 19V8.375C31.9091 6.68424 31.2338 5.06274 30.0319 3.86719C28.83 2.67165 27.1998 2 25.5 2H8.40909C6.70929 2 5.07912 2.67165 3.87718 3.86719C2.67524 5.06274 2 6.68424 2 8.375V46.625C2 48.3158 2.67524 49.9373 3.87718 51.1328C5.07912 52.3283 6.70929 53 8.40909 53H25.5C27.1998 53 28.83 52.3283 30.0319 51.1328C31.2338 49.9373 31.9091 48.3158 31.9091 46.625V36M21.2273 19L12.6818 27.5M12.6818 27.5L21.2273 36M12.6818 27.5H49" stroke="#3E1874" stroke-width="3.5" stroke-linecap="round" stroke-linejoin="round"/>
</svg>
