<svg width="21" height="29" viewBox="0 0 21 29" fill="none" xmlns="http://www.w3.org/2000/svg">
<path d="M20 17.5V14C20 12.8065 19.5496 11.6619 18.7479 10.818C17.9462 9.97411 16.8588 9.5 15.725 9.5H13.825C13.4471 9.5 13.0846 9.34196 12.8174 9.06066C12.5501 8.77936 12.4 8.39782 12.4 8V6C12.4 4.80653 11.9496 3.66193 11.1479 2.81802C10.3462 1.97411 9.2588 1.5 8.125 1.5H5.75M5.75 18.5H15.25M5.75 22.5H10.5M8.6 1.5H2.425C1.6384 1.5 1 2.172 1 3V26C1 26.828 1.6384 27.5 2.425 27.5H18.575C19.3616 27.5 20 26.828 20 26V13.5C20 10.3174 18.7989 7.26516 16.661 5.01472C14.5231 2.76428 11.6235 1.5 8.6 1.5Z" stroke="#3E1874" stroke-width="1.5" stroke-linecap="round" stroke-linejoin="round"/>
</svg>
