<svg width="31" height="25" viewBox="0 0 31 25" fill="none" xmlns="http://www.w3.org/2000/svg">
<path d="M1 20.9943C8.93501 20.9882 16.8355 21.9795 24.493 23.9422C25.5742 24.22 26.6538 23.4623 26.6538 22.4044V20.9943M3.23077 1V2.05233C3.23077 2.33142 3.11326 2.59909 2.90408 2.79644C2.69491 2.99379 2.4112 3.10466 2.11538 3.10466H1M1 3.10466V2.57849C1 1.70717 1.74954 1 2.67308 1H27.7692M1 3.10466V15.7326M27.7692 1V2.05233C27.7692 2.63322 28.2689 3.10466 28.8846 3.10466H30M27.7692 1H28.3269C29.2505 1 30 1.70717 30 2.57849V16.2588C30 17.1301 29.2505 17.8373 28.3269 17.8373H27.7692M1 15.7326V16.2588C1 16.6774 1.17627 17.0789 1.49003 17.3749C1.8038 17.671 2.22935 17.8373 2.67308 17.8373H3.23077M1 15.7326H2.11538C2.4112 15.7326 2.69491 15.8435 2.90408 16.0408C3.11326 16.2382 3.23077 16.5058 3.23077 16.7849V17.8373M27.7692 17.8373V16.7849C27.7692 16.5058 27.8867 16.2382 28.0959 16.0408C28.3051 15.8435 28.5888 15.7326 28.8846 15.7326H30M27.7692 17.8373H3.23077M19.9615 9.41864C19.9615 10.535 19.4915 11.6057 18.6548 12.3951C17.8181 13.1845 16.6833 13.628 15.5 13.628C14.3167 13.628 13.1819 13.1845 12.3452 12.3951C11.5085 11.6057 11.0385 10.535 11.0385 9.41864C11.0385 8.30225 11.5085 7.2316 12.3452 6.4422C13.1819 5.6528 14.3167 5.20932 15.5 5.20932C16.6833 5.20932 17.8181 5.6528 18.6548 6.4422C19.4915 7.2316 19.9615 8.30225 19.9615 9.41864ZM24.4231 9.41864H24.435V9.42986H24.4231V9.41864ZM6.57692 9.41864H6.58882V9.42986H6.57692V9.41864Z" stroke="#2A7E87" stroke-width="2" stroke-linecap="round" stroke-linejoin="round"/>
</svg>
