<svg width="18" height="18" viewBox="0 0 18 18" fill="none" xmlns="http://www.w3.org/2000/svg">
<path d="M18 1.28571C18 1.99687 17.4254 2.57143 16.7143 2.57143H7.71429C7.00313 2.57143 6.42857 1.99687 6.42857 1.28571C6.42857 0.574554 7.00313 0 7.71429 0H16.7143C17.4254 0 18 0.574554 18 1.28571ZM18 11.5714C18 12.2826 17.4254 12.8571 16.7143 12.8571H7.71429C7.00313 12.8571 6.42857 12.2826 6.42857 11.5714C6.42857 10.8603 7.00313 10.2857 7.71429 10.2857H16.7143C17.4254 10.2857 18 10.8603 18 11.5714ZM0 6.42857C0 5.71741 0.574554 5.14286 1.28571 5.14286H16.7143C17.4254 5.14286 18 5.71741 18 6.42857C18 7.13973 17.4254 7.71429 16.7143 7.71429H1.28571C0.574554 7.71429 0 7.13973 0 6.42857ZM18 16.7143C18 17.4254 17.4254 18 16.7143 18H1.28571C0.574554 18 0 17.4254 0 16.7143C0 16.0031 0.574554 15.4286 1.28571 15.4286H16.7143C17.4254 15.4286 18 16.0031 18 16.7143Z" fill="#3E1874"/>
</svg>
