<svg width="253" height="230" viewBox="0 0 253 230" fill="none" xmlns="http://www.w3.org/2000/svg">
<g clip-path="url(#clip0_236_1602)">
<path d="M227.94 164.793L237.317 163.73C239.349 159.21 240.247 154.263 239.932 149.318C234.835 156.503 224.052 156.388 216.886 161.514C214.664 163.129 212.833 165.224 211.531 167.644C210.228 170.063 209.487 172.744 209.361 175.489L206.265 181.422C210.675 181.904 215.137 181.425 219.344 180.018C223.551 178.61 227.403 176.308 230.634 173.269C232.429 171.546 234.001 169.604 235.311 167.488C231.622 166.371 227.94 164.793 227.94 164.793Z" fill="#F2F2F2"/>
<path d="M220.801 151.292L228.719 146.159C228.522 141.208 227.119 136.379 224.631 132.093C223.274 140.797 213.571 145.502 209.444 153.285C208.176 155.722 207.472 158.414 207.385 161.16C207.298 163.906 207.831 166.637 208.943 169.149L208.818 175.84C212.98 174.306 216.76 171.887 219.898 168.752C223.035 165.616 225.456 161.838 226.992 157.677C227.831 155.334 228.371 152.895 228.6 150.417C224.8 151.062 220.801 151.292 220.801 151.292Z" fill="#F2F2F2"/>
<path d="M186.424 214.105C202.117 214.105 214.839 201.385 214.839 185.695C214.839 170.005 202.117 157.285 186.424 157.285C170.73 157.285 158.008 170.005 158.008 185.695C158.008 201.385 170.73 214.105 186.424 214.105Z" fill="white"/>
<path d="M186.424 214.452C180.735 214.452 175.174 212.765 170.444 209.606C165.714 206.446 162.028 201.955 159.851 196.7C157.674 191.445 157.104 185.663 158.214 180.085C159.324 174.507 162.063 169.383 166.086 165.361C170.108 161.339 175.233 158.601 180.812 157.491C186.392 156.381 192.175 156.951 197.431 159.127C202.686 161.304 207.178 164.99 210.339 169.719C213.499 174.448 215.186 180.007 215.186 185.695C215.177 193.319 212.144 200.629 206.752 206.02C201.36 211.411 194.049 214.443 186.424 214.452ZM186.424 157.632C180.872 157.632 175.446 159.278 170.83 162.362C166.214 165.445 162.616 169.828 160.492 174.956C158.367 180.084 157.812 185.726 158.895 191.17C159.978 196.614 162.651 201.614 166.576 205.539C170.502 209.463 175.503 212.136 180.948 213.219C186.393 214.302 192.036 213.746 197.165 211.622C202.294 209.498 206.678 205.901 209.762 201.286C212.846 196.671 214.492 191.245 214.492 185.695C214.484 178.255 211.524 171.122 206.262 165.861C201 160.6 193.865 157.64 186.424 157.632Z" fill="#3F3D56"/>
<path d="M184.296 197.049C184.236 197.049 184.175 197.047 184.115 197.044C183.579 197.018 183.056 196.877 182.581 196.63C182.105 196.383 181.689 196.036 181.36 195.613L176.611 189.51C176.311 189.124 176.09 188.684 175.961 188.213C175.831 187.742 175.796 187.251 175.856 186.766C175.917 186.282 176.072 185.814 176.313 185.39C176.555 184.965 176.877 184.593 177.263 184.293L177.434 184.16C177.819 183.86 178.26 183.639 178.731 183.509C179.202 183.38 179.694 183.344 180.178 183.405C180.663 183.465 181.131 183.621 181.555 183.862C181.98 184.104 182.353 184.426 182.652 184.812C182.892 185.12 183.196 185.372 183.542 185.552C183.889 185.732 184.27 185.835 184.66 185.854C185.05 185.873 185.439 185.807 185.801 185.662C186.164 185.517 186.49 185.295 186.759 185.012L196.401 174.835C197.079 174.12 198.014 173.704 198.999 173.677C199.985 173.65 200.94 174.015 201.657 174.692L201.815 174.843C202.17 175.178 202.455 175.581 202.654 176.026C202.853 176.472 202.962 176.953 202.975 177.441C202.988 177.929 202.905 178.415 202.73 178.87C202.556 179.326 202.293 179.743 201.957 180.098L186.994 195.888C186.647 196.255 186.229 196.547 185.765 196.747C185.301 196.946 184.801 197.049 184.296 197.049Z" fill="#6C63FF"/>
<path d="M171.559 222.001L167.618 222.44L163.884 207.154L169.7 206.506L171.559 222.001Z" fill="#A0616A"/>
<path d="M197.522 153.277C197.4 153.155 197.267 153.037 197.135 152.924C196.118 152.081 195.055 151.294 193.952 150.567C192.703 149.735 191.298 148.886 189.709 148.01C188.94 147.585 188.127 147.152 187.27 146.709C186.841 146.487 186.4 146.264 185.946 146.039C185.926 146.028 185.907 146.017 185.886 146.008L185.755 145.941L176.191 153.834L175.512 154.368L177.273 156.54C177.273 156.54 177.12 158.267 177.124 158.268L175.375 162.631L175.356 162.64L169.125 165.483L162.704 168.414L159.256 169.989C158.456 170.353 157.737 170.873 157.14 171.517C156.543 172.162 156.08 172.919 155.779 173.745C155.462 174.602 155.319 175.513 155.358 176.426C155.396 177.339 155.617 178.236 156.006 179.063C156.083 179.231 156.17 179.4 156.261 179.563L157.694 188.571C158.55 193.959 160.215 199.187 162.631 204.079L164.82 212.511L165.153 212.344L170.103 209.865L171.411 209.212L171.657 203.546C171.685 202.9 171.69 202.251 171.667 201.603C171.633 200.542 171.531 199.485 171.363 198.437L168.525 180.768C169.028 180.563 169.525 180.357 170.015 180.15C172.287 179.199 174.437 178.239 176.467 177.268C183.067 174.114 188.444 170.84 192.837 167.293C194.072 166.298 195.23 165.28 196.311 164.238C196.709 163.858 197.096 163.473 197.472 163.085C197.562 162.995 197.649 162.907 197.735 162.816C198.509 162.005 199.066 161.012 199.357 159.929C199.648 158.846 199.662 157.708 199.399 156.618C199.104 155.348 198.453 154.189 197.522 153.277Z" fill="#2F2E41"/>
<path d="M171.238 219.325L166.972 219.796L166.303 219.87L166.738 222.403L161.781 227.245C161.535 227.484 161.373 227.795 161.317 228.133C161.262 228.471 161.315 228.818 161.471 229.123C161.627 229.428 161.876 229.676 162.182 229.83C162.488 229.983 162.836 230.035 163.173 229.977L170.214 228.771L170.997 226.058L171.9 228.482L174.552 228.029L172.275 219.211L171.238 219.325Z" fill="#2F2E41"/>
<path d="M175.298 131.619L178.951 127.746L173.798 116.475L173.032 112.515C172.932 112.001 172.699 111.522 172.356 111.126C172.013 110.729 171.573 110.43 171.078 110.258C170.583 110.085 170.052 110.045 169.537 110.143C169.022 110.24 168.541 110.47 168.143 110.811C167.554 111.317 167.184 112.031 167.111 112.804C167.038 113.577 167.269 114.348 167.754 114.954L170.599 118.51L175.298 131.619Z" fill="#A0616A"/>
<path d="M178.951 126.012L174.788 130.174L175.584 136.26C175.838 137.054 176.293 137.77 176.904 138.337C177.516 138.904 178.263 139.303 179.075 139.496C180.075 139.734 181.125 139.648 182.073 139.249C183.021 138.85 183.817 138.16 184.346 137.278L193.71 121.231C194.374 120.126 194.578 118.804 194.281 117.55C193.983 116.295 193.207 115.206 192.117 114.516C191.531 114.145 190.873 113.902 190.187 113.802C189.501 113.702 188.801 113.747 188.133 113.935C187.465 114.123 186.845 114.45 186.312 114.894C185.779 115.337 185.345 115.888 185.039 116.511L179.324 128.687L178.951 126.012Z" fill="#E6E6E6"/>
<path d="M174.757 187.431C174.542 187.65 174.326 187.866 174.108 188.083C173.674 188.516 173.234 188.946 172.792 189.37C172.57 189.582 172.345 189.796 172.123 190.005L172.125 190.013L172.11 190.019L172.105 190.023L171.735 190.214L170.813 188.857L170.388 188.232L169.788 187.347L168.687 185.727L162.892 177.199L168.089 174.517L168.498 175.314L168.501 175.313L168.703 175.708L172.504 183.07L173.28 184.575L173.304 184.621L173.77 185.519L174.173 186.298L174.621 187.169L174.757 187.431Z" fill="#A0616A"/>
<path d="M173.683 184.667L170.066 186.976L169.498 187.338L171.009 189.417L168.704 195.952C168.59 196.275 168.582 196.626 168.682 196.953C168.781 197.281 168.983 197.569 169.258 197.774C169.532 197.978 169.865 198.09 170.208 198.093C170.55 198.095 170.885 197.988 171.162 197.786L176.943 193.592L176.445 190.812L178.328 192.587L180.506 191.007L174.563 184.106L173.683 184.667Z" fill="#2F2E41"/>
<path d="M48.0794 56.7913L50.8495 47.7716C47.5165 44.1041 43.3386 41.3055 38.6783 39.6188C43.2314 47.1604 38.8194 56.9986 40.658 65.6136C41.252 68.2962 42.4422 70.8108 44.1403 72.9709C45.8384 75.1311 48.001 76.8815 50.4678 78.0925L54.6714 83.2999C56.8751 79.4505 58.2179 75.1692 58.6073 70.7509C58.9967 66.3327 58.4235 61.8825 56.9271 57.7071C56.0644 55.373 54.9112 53.1569 53.4946 51.1109C50.9966 54.047 48.0794 56.7913 48.0794 56.7913Z" fill="#F2F2F2"/>
<path d="M32.848 57.9437L31.3039 48.6356C26.6848 46.8392 21.697 46.1972 16.7735 46.7655C24.2127 51.4854 24.6524 62.2582 30.1408 69.1493C31.8691 71.2854 34.056 73.0054 36.5395 74.1816C39.023 75.3579 41.7394 75.9603 44.4874 75.9443L50.5727 78.7307C50.828 74.3027 50.1201 69.872 48.4978 65.7439C46.8755 61.6157 44.3774 57.8883 41.1755 54.8183C39.3622 53.1139 37.3414 51.6445 35.1609 50.445C34.2348 54.1867 32.848 57.9437 32.848 57.9437Z" fill="#F2F2F2"/>
<path d="M85.8644 30.607L88.7094 27.0514C89.1945 26.4451 89.4251 25.6742 89.3524 24.9012C89.2797 24.1282 88.9095 23.4137 88.32 22.9085C87.9221 22.5675 87.4417 22.3369 86.9268 22.2398C86.4118 22.1426 85.8804 22.1822 85.3856 22.3547C84.8908 22.5272 84.45 22.8265 84.1071 23.2227C83.7643 23.6189 83.5314 24.0981 83.4318 24.6125L82.6654 28.5716L79.7572 36.4222L83.247 38.1668L85.8644 30.607Z" fill="#FFB8B8"/>
<path d="M77.1398 40.7837L71.4244 28.6078C71.1184 27.9854 70.6848 27.4344 70.1517 26.9906C69.6186 26.5469 68.9981 26.2203 68.3304 26.0322C67.6627 25.8441 66.9629 25.7986 66.2765 25.8988C65.5901 25.9989 64.9325 26.2425 64.3465 26.6136C63.2569 27.3035 62.4803 28.3921 62.1826 29.6468C61.8849 30.9015 62.0898 32.2228 62.7533 33.3286L72.1171 49.3754C72.6462 50.2571 73.4425 50.9473 74.3903 51.3461C75.3382 51.7449 76.3885 51.8315 77.3889 51.5934C78.2003 51.4003 78.9479 51.0008 79.5594 50.4337C80.1709 49.8667 80.6255 49.1513 80.8791 48.3569L84.4103 37.2945L79.7572 34.9684L77.1398 40.7837Z" fill="#2F2E41"/>
<path d="M87.9242 36.865L84.1799 36.5511C83.5922 36.5012 83.0483 36.2202 82.6675 35.7698C82.2867 35.3194 82.1002 34.7364 82.1488 34.1487L83.5894 16.9722C83.6393 16.3846 83.9204 15.8407 84.3708 15.46C84.8213 15.0793 85.4044 14.8929 85.9923 14.9415L89.7365 15.2554C90.3243 15.3053 90.8682 15.5863 91.249 16.0367C91.6297 16.4871 91.8163 17.0701 91.7676 17.6578L90.327 34.8343C90.2771 35.4219 89.9961 35.9657 89.5456 36.3464C89.0951 36.7271 88.512 36.9136 87.9242 36.865Z" fill="#3F3D56"/>
<path d="M85.4807 15.7808C85.1639 15.7546 84.8497 15.8551 84.6069 16.0603C84.3642 16.2654 84.2127 16.5585 84.1858 16.8751L82.7452 34.0517C82.719 34.3684 82.8196 34.6825 83.0248 34.9252C83.2299 35.168 83.5231 35.3194 83.8398 35.3463L87.584 35.6602C87.9008 35.6864 88.215 35.5859 88.4578 35.3807C88.7005 35.1756 88.852 34.8825 88.8789 34.5659L90.3195 17.3893C90.3457 17.0726 90.2451 16.7585 90.0399 16.5158C89.8348 16.2731 89.5417 16.1216 89.225 16.0947L85.4807 15.7808Z" fill="#6C63FF"/>
<path d="M77.8204 52.3253H62.2427V67.8999H77.8204V52.3253Z" fill="#FFB8B8"/>
<path d="M80.85 50.9932C81.3109 50.9932 81.6846 50.6197 81.6846 50.1589C81.6846 49.6981 81.3109 49.3245 80.85 49.3245C80.3892 49.3245 80.0155 49.6981 80.0155 50.1589C80.0155 50.6197 80.3892 50.9932 80.85 50.9932Z" fill="#2F2E41"/>
<path d="M94.7545 118.112L98.9091 118.112L100.886 102.09L94.7538 102.09L94.7545 118.112Z" fill="#FFB6B6"/>
<path d="M93.7242 116.063L100.292 115.671V118.485L106.536 122.796C106.845 123.009 107.077 123.315 107.199 123.669C107.321 124.023 107.327 124.408 107.216 124.765C107.104 125.123 106.881 125.436 106.579 125.658C106.277 125.88 105.912 126 105.537 126H97.7182L96.3704 123.217L95.8442 126H92.896L93.7242 116.063Z" fill="#2F2E41"/>
<path d="M63.9202 129.55L67.4827 131.688L77.4246 118.967L72.1671 115.812L63.9202 129.55Z" fill="#FFB6B6"/>
<path d="M64.0915 127.263L69.9245 130.306L68.4764 132.718L71.6108 139.628C71.7656 139.969 71.8073 140.351 71.7297 140.718C71.6522 141.084 71.4594 141.417 71.1797 141.666C70.8999 141.915 70.5477 142.069 70.1745 142.104C69.8014 142.139 69.4268 142.054 69.1054 141.861L62.4012 137.838L62.6781 134.758L60.7944 136.873L58.2667 135.356L64.0915 127.263Z" fill="#2F2E41"/>
<path d="M-19.6217 128.155C-19.6627 128.155 -19.7037 128.155 -19.7451 128.153C-20.228 128.136 -20.6996 128.002 -21.1197 127.763C-21.5397 127.524 -21.8959 127.187 -22.1578 126.781C-24.1196 123.85 -26.527 121.242 -29.2933 119.053C-30.9679 117.715 -32.7178 116.471 -34.41 115.267C-38.7756 112.164 -42.887 109.241 -45.1692 105.202C-50.1451 96.3949 -44.2852 84.1282 -35.9139 78.6269C-26.5243 72.457 -14.1737 71.4892 -2.22589 71.3624C-0.984188 71.3492 0.258255 71.3427 1.50144 71.3428C23.0288 71.351 44.5109 73.3149 65.6827 77.2102C72.7229 78.5088 80.0921 80.0996 86.014 83.9603C91.9007 87.7982 95.4788 93.8419 95.1297 99.3579C94.6201 107.41 86.0822 113.427 78.3078 115C70.8976 116.498 63.1995 115.486 55.0498 114.414C53.2506 114.177 51.3903 113.932 49.5507 113.72C29.5578 111.409 -8.00012 118.531 -9.58906 118.835L-11.1655 119.137L-17.2821 127.006C-17.5572 127.365 -17.9115 127.656 -18.3173 127.855C-18.7231 128.054 -19.1695 128.157 -19.6217 128.155Z" fill="#6C63FF"/>
<path d="M69.4089 88.873H-15.0942C-15.5819 88.873 -16.0495 88.6793 -16.3943 88.3345C-16.7391 87.9898 -16.9328 87.5222 -16.9328 87.0347C-16.9328 86.5472 -16.7391 86.0796 -16.3943 85.7349C-16.0495 85.3901 -15.5819 85.1965 -15.0942 85.1965H69.4089C69.8965 85.1965 70.3642 85.3901 70.709 85.7349C71.0538 86.0796 71.2475 86.5472 71.2475 87.0347C71.2475 87.5222 71.0538 87.9898 70.709 88.3345C70.3642 88.6793 69.8965 88.873 69.4089 88.873Z" fill="white"/>
<path d="M69.4089 100.156H-15.0942C-15.3358 100.157 -15.5751 100.11 -15.7985 100.018C-16.0218 99.9255 -16.2249 99.7903 -16.3959 99.6198C-16.567 99.4493 -16.7028 99.2467 -16.7956 99.0237C-16.8883 98.8006 -16.9361 98.5615 -16.9364 98.32C-16.9367 98.0784 -16.8893 97.8392 -16.797 97.616C-16.7048 97.3927 -16.5694 97.1899 -16.3987 97.019C-16.2279 96.8481 -16.0252 96.7125 -15.802 96.62C-15.5789 96.5275 -15.3397 96.4798 -15.0981 96.4798H69.4089C69.8961 96.4805 70.3631 96.6744 70.7073 97.0191C71.0516 97.3638 71.245 97.8309 71.245 98.318C71.245 98.8051 71.0516 99.2723 70.7073 99.617C70.3631 99.9616 69.8961 100.156 69.4089 100.156Z" fill="white"/>
<path d="M78.3718 63.4411L61.7168 61.454L62.1961 64.611C62.1961 64.611 50.9181 73.6969 58.6386 83.7216L62.3658 87.356L62.0226 89.0638H64.4165L64.6731 91.1244L74.9697 99.6458L75.5608 101.389H77.2565L76.4278 103.372L68.7834 121.147L75.1166 124.1L86.7809 101.743L83.7931 95.0049L73.0449 81.404L89.6923 87.9782L89.9761 89.4214L91.5064 89.1316L91.2109 91.2556L94.4593 107.967L101.34 107.054L100.633 86.2601C100.58 85.1235 100.227 84.0212 99.6094 83.0651C98.9923 82.109 98.1332 81.3333 97.1192 80.8166C93.592 79.0052 80.5624 73.9723 80.5624 73.9723L78.3718 63.4411Z" fill="#2F2E41"/>
<path d="M71.7006 27.0165L68.5651 22.9869L64.0925 22.793L63.646 26.5829L61.4298 27.6046C59.217 36.0099 58.8752 44.7983 60.4287 53.35C60.7257 53.6296 60.9427 53.9833 61.0574 54.3748C61.172 54.7662 61.1801 55.1811 61.0809 55.5768L60.9372 56.1494L60.9505 56.1704C61.4221 56.9144 61.5821 57.8139 61.3959 58.6748L57.3444 65.8726C65.9481 69.3785 72.2554 62.8404 78.0986 54.2721L81.7148 41.7567L71.7006 27.0165Z" fill="#3F3D56"/>
<path d="M81.1269 50.1865L81.9713 41.7428L70.7607 25.151L70.2997 25.4621L81.3975 41.8878L80.5733 50.131L81.1269 50.1865Z" fill="#2F2E41"/>
<path d="M68.7839 22.6561C73.3512 22.6561 77.0536 18.9543 77.0536 14.388C77.0536 9.82162 73.3512 6.11987 68.7839 6.11987C64.2167 6.11987 60.5142 9.82162 60.5142 14.388C60.5142 18.9543 64.2167 22.6561 68.7839 22.6561Z" fill="#FFB8B8"/>
<path d="M69.8475 4.30421L68.8097 4.33712L68.4573 4.34831L64.5081 4.47359C61.0077 4.58463 58.2714 7.86638 58.3963 11.8036C55.8392 14.539 56.7373 17.8358 58.9465 21.3455C62.7436 21.696 66.4744 22.5679 70.0335 23.9366L70.4643 21.793L71.5363 24.5641C72.424 24.9599 73.3056 25.3955 74.181 25.8709C73.0283 21.1907 72.4663 16.5027 73.0391 12.829L74.8475 12.7716L74.7847 10.7929L75.4614 12.7521L78.74 12.6481C78.7041 11.5165 78.4456 10.403 77.9793 9.37121C77.5129 8.33944 76.8479 7.4096 76.0222 6.6348C75.1964 5.85999 74.2261 5.25539 73.1666 4.8555C72.1072 4.45562 70.9793 4.26829 69.8475 4.30421Z" fill="#2F2E41"/>
<path d="M62.7072 7.78738C64.858 7.78738 66.6016 6.04413 66.6016 3.89372C66.6016 1.74331 64.858 6.10352e-05 62.7072 6.10352e-05C60.5563 6.10352e-05 58.8127 1.74331 58.8127 3.89372C58.8127 6.04413 60.5563 7.78738 62.7072 7.78738Z" fill="#2F2E41"/>
<path d="M88.2928 34.7691L91.1378 31.2136C91.6229 30.6073 91.8535 29.8363 91.7808 29.0634C91.7081 28.2904 91.3379 27.5759 90.7484 27.0706C90.3505 26.7297 89.8701 26.4991 89.3552 26.4019C88.8403 26.3047 88.3088 26.3444 87.814 26.5169C87.3192 26.6894 86.8784 26.9887 86.5355 27.3849C86.1927 27.7811 85.9598 28.2603 85.8602 28.7747L85.0938 32.7338L82.1856 40.5844L85.6754 42.329L88.2928 34.7691Z" fill="#FFB8B8"/>
<path d="M79.5682 44.9459L73.8528 32.77C73.5468 32.1476 73.1132 31.5966 72.5801 31.1528C72.047 30.709 71.4265 30.3825 70.7588 30.1944C70.0911 30.0062 69.3913 29.9608 68.7049 30.061C68.0185 30.1611 67.3609 30.4047 66.7749 30.7757C65.6853 31.4657 64.9087 32.5543 64.611 33.809C64.3133 35.0637 64.5182 36.385 65.1817 37.4907L74.5456 53.5376C75.0746 54.4192 75.8709 55.1095 76.8187 55.5083C77.7666 55.9071 78.8169 55.9937 79.8173 55.7556C80.6287 55.5624 81.3763 55.163 81.9878 54.5959C82.5993 54.0289 83.0539 53.3135 83.3075 52.5191L86.8387 41.4567L82.1856 39.1306L79.5682 44.9459Z" fill="#2F2E41"/>
<path d="M199.767 160.324C199.408 160.902 199.04 161.478 198.669 162.048C197.981 163.109 197.274 164.154 196.549 165.184C196.549 165.187 196.546 165.187 196.543 165.19C196.12 165.581 195.653 165.923 195.151 166.206C195.13 166.222 195.106 166.232 195.085 166.246C194.715 166.45 194.322 166.608 193.913 166.716C193.766 166.753 193.616 166.789 193.469 166.826C192.938 166.952 192.413 167.06 191.89 167.155C190.96 167.32 190.04 167.438 189.126 167.512C189.052 167.52 188.979 167.525 188.905 167.53C185.145 167.806 181.485 167.362 177.665 166.634C175.778 166.277 173.852 165.849 171.858 165.405C171.206 165.258 170.552 165.113 169.89 164.969C169.84 164.958 169.787 164.945 169.735 164.935C168.789 164.727 167.827 164.522 166.842 164.32C165.601 164.065 166.237 164.05 164.908 163.817C164.908 163.817 167.975 166.931 168.485 168.281C169.053 169.942 169.502 171.255 168.553 173.99L171.499 179.772L161.258 181.508C155.614 170.45 151.103 163.169 153.118 158.88C153.126 158.68 153.142 158.478 153.168 158.278C153.275 157.371 153.562 156.494 154.012 155.698C154.461 154.902 155.065 154.204 155.788 153.644C156.48 153.103 157.273 152.705 158.121 152.474C158.968 152.242 159.853 152.181 160.725 152.294L162.735 152.554L178.324 151.797L178.936 149.301L179.049 149.259L182.641 147.943L195.064 143.39L195.096 143.38L195.913 143.08L196.01 143.238C196.039 143.285 196.068 143.333 196.094 143.38C196.902 144.828 197.559 146.354 198.057 147.935C198.893 150.518 199.582 153.147 200.12 155.808C200.143 155.924 200.164 156.029 200.183 156.124L200.19 156.153C200.198 156.197 200.204 156.226 200.206 156.234C200.493 157.427 200.293 158.882 199.767 160.324Z" fill="#2F2E41"/>
<path d="M197.146 111.782L197.057 106.804L189.167 105.886L188.34 110.09L180.048 117.88C174.153 125.086 178.437 130.055 178.694 130.794L179.423 139.88L179.881 143.037L178.09 151.677L200.693 156.525C201.416 150.551 200.611 145.001 195.892 140.534L198.276 133.117C199.485 131.18 200.243 128.996 200.494 126.727L200.58 125.952C202.687 119.388 201.438 117.178 197.146 111.782Z" fill="#E6E6E6"/>
<path d="M208.215 96.2221C208.22 96.3508 208.223 96.4795 208.223 96.6056C208.221 97.997 207.889 99.3681 207.255 100.607C206.622 101.846 205.704 102.917 204.577 103.733C203.45 104.549 202.146 105.087 200.771 105.303C199.396 105.519 197.99 105.407 196.667 104.975L195.046 104.447C195.033 104.442 195.017 104.439 195.004 104.434L192.331 103.562C192.323 103.449 192.325 103.336 192.337 103.223C188.351 101.521 193.861 95.9279 195.23 91.7272C195.443 91.0731 188.125 91.5617 188.472 91.0022C188.395 90.9628 188.319 90.9234 188.248 90.884C189.484 88.9336 191.312 87.4294 193.463 86.591C195.615 85.7526 197.979 85.6238 200.209 86.2236C200.267 86.2367 200.327 86.2551 200.385 86.2709C205.577 86.3996 208.304 90.017 208.304 94.7142C208.304 95.2181 208.274 95.7216 208.215 96.2221Z" fill="#2F2E41"/>
<path d="M203.717 98.0715C203.02 100.205 201.505 101.974 199.504 102.99C197.503 104.006 195.18 104.187 193.046 103.491C192.804 103.412 192.568 103.323 192.337 103.223C190.395 102.391 188.835 100.863 187.963 98.9384C187.091 97.0143 186.971 94.8337 187.626 92.8254C187.833 92.1859 188.117 91.5738 188.472 91.0022C189.559 89.2409 191.255 87.9394 193.238 87.3442C195.221 86.749 197.354 86.9012 199.232 87.7722C201.111 88.6432 202.604 90.1725 203.431 92.0705C204.257 93.9685 204.359 96.1036 203.717 98.0715Z" fill="#A0616A"/>
<path d="M195.044 104.447C195.03 104.443 195.016 104.438 195.003 104.433L192.331 103.562C192.324 103.448 187.419 106.694 187.433 106.58C187.509 105.702 193.036 101.422 193.861 100.427C194.395 99.7909 194.766 99.0348 194.943 98.2237C195.12 97.4126 195.096 96.5707 194.875 95.7706C194.654 94.9704 194.241 94.2361 193.673 93.6309C193.105 93.0257 192.398 92.5677 191.613 92.2964C191.589 92.2904 191.566 92.2823 191.544 92.2722C191.027 92.0918 190.531 91.908 190.066 91.7241C189.837 90.7703 189.719 91.0859 189.167 90.2778C189.268 91.0131 188.335 91.5681 188.321 92.3103C188.13 92.2236 187.95 92.1334 187.776 92.0432C187.7 92.0016 187.627 91.9635 187.554 91.9253C187.019 91.6767 186.552 91.3032 186.191 90.8362C187.526 86.733 192.637 83.4483 196.741 84.7906L198.291 85.2936C200.247 85.9283 201.872 87.3112 202.812 89.1401C203.943 90.0071 204.846 91.137 205.441 92.4317C208.834 99.2473 202.281 106.77 195.044 104.447Z" fill="#2F2E41"/>
<path d="M206.265 93.0407C208.297 93.0407 209.944 91.3941 209.944 89.3629C209.944 87.3317 208.297 85.6851 206.265 85.6851C204.234 85.6851 202.587 87.3317 202.587 89.3629C202.587 91.3941 204.234 93.0407 206.265 93.0407Z" fill="#2F2E41"/>
<path d="M253 96.8644C252.22 100.408 250.66 103.732 248.432 106.596C246.204 109.46 243.365 111.791 240.122 113.42C239.71 113.624 239.29 113.815 238.867 113.992C238.905 112.276 238.412 110.591 237.455 109.167C237.61 110.322 237.629 111.491 237.51 112.65C237.445 113.314 237.335 113.973 237.181 114.623C234.459 115.52 231.601 115.933 228.737 115.841C228.573 114.568 228.113 113.351 227.394 112.289C227.55 113.443 227.568 114.612 227.45 115.771C224.571 115.538 221.758 114.784 219.148 113.548C217.791 112.903 216.459 112.095 215.585 110.874C214.423 109.247 214.229 107.1 214.513 105.123C214.798 103.142 215.509 101.252 216.005 99.3166C216.501 97.3812 216.782 95.3105 216.199 93.3994C215.62 91.4848 213.993 89.7818 211.998 89.6326C211.089 89.5633 210.177 89.813 209.268 89.7297C208.359 89.643 207.374 89.036 207.353 88.1238L208.224 86.7087C208.591 84.2322 209.854 81.7765 212.019 80.5174C214.18 79.2549 217.288 79.5255 218.832 81.4956C220.133 83.1535 220.085 85.4566 220.511 87.5203C221.503 92.3138 225.337 96.1707 229.791 98.2032C234.249 100.232 239.266 100.659 244.164 100.576C245.843 100.544 247.55 100.454 249.146 99.9236C250.745 99.3895 252.237 98.3628 253 96.8644Z" fill="#2F2E41"/>
<path d="M169.573 118.968L168.132 101.792C168.084 101.204 168.27 100.621 168.651 100.171C169.032 99.7203 169.576 99.4393 170.163 99.3894L173.908 99.0755C174.495 99.0268 175.078 99.2133 175.529 99.594C175.979 99.9747 176.26 100.519 176.31 101.106L177.751 118.283C177.8 118.87 177.613 119.453 177.232 119.904C176.852 120.354 176.308 120.635 175.72 120.685L171.976 120.999C171.388 121.048 170.805 120.861 170.354 120.48C169.904 120.1 169.623 119.556 169.573 118.968Z" fill="#3F3D56"/>
<path d="M170.675 100.229C170.358 100.256 170.065 100.407 169.86 100.65C169.655 100.892 169.554 101.207 169.58 101.523L171.021 118.7C171.048 119.017 171.199 119.31 171.442 119.515C171.685 119.72 171.999 119.82 172.316 119.794L176.06 119.48C176.377 119.453 176.67 119.302 176.875 119.059C177.08 118.817 177.181 118.502 177.155 118.186L175.714 101.009C175.687 100.692 175.536 100.399 175.293 100.194C175.05 99.9891 174.736 99.8886 174.419 99.9148L170.675 100.229Z" fill="#6C63FF"/>
<path d="M176.988 124.862L180.633 123.471L178.516 115.371L178.145 111.356C178.097 110.834 177.913 110.334 177.611 109.906C177.309 109.478 176.9 109.136 176.424 108.916C175.949 108.695 175.424 108.603 174.902 108.649C174.38 108.695 173.879 108.877 173.45 109.177C172.813 109.621 172.374 110.296 172.225 111.058C172.076 111.82 172.229 112.609 172.652 113.261L175.131 117.08L176.988 124.862Z" fill="#A0616A"/>
<path d="M180.777 122.024L175.917 123.879L178.336 135.236C178.51 136.052 178.891 136.809 179.444 137.433C179.996 138.058 180.701 138.53 181.489 138.802C182.461 139.138 183.514 139.156 184.497 138.853C185.48 138.549 186.34 137.941 186.954 137.116L197.86 122.074C198.63 121.04 198.964 119.745 198.792 118.467C198.62 117.189 197.955 116.029 196.939 115.235C196.392 114.807 195.762 114.5 195.089 114.333C194.416 114.165 193.715 114.141 193.032 114.262C192.349 114.383 191.699 114.647 191.125 115.036C190.55 115.425 190.064 115.93 189.698 116.519L182.806 128.07L180.777 122.024Z" fill="#E6E6E6"/>
<path opacity="0.2" d="M176.824 128.138L179.281 138.113L179.79 138.734C180.194 139.225 180.71 139.612 181.295 139.863C181.879 140.113 182.515 140.22 183.149 140.173C183.784 140.127 184.398 139.929 184.939 139.596C185.481 139.263 185.935 138.804 186.263 138.259L194.049 125.316L187.029 135.028C186.635 135.572 186.11 136.008 185.502 136.294C184.894 136.581 184.223 136.708 183.552 136.664C182.882 136.621 182.233 136.408 181.667 136.045C181.101 135.683 180.637 135.183 180.317 134.592L176.824 128.138Z" fill="black"/>
</g>
<defs>
<clipPath id="clip0_236_1602">
<rect width="300" height="230" fill="white" transform="translate(-47)"/>
</clipPath>
</defs>
</svg>
