<svg width="16" height="19" viewBox="0 0 16 19" fill="none" xmlns="http://www.w3.org/2000/svg">
<path d="M10.3248 6.88491L10.0313 14.7309M5.96873 14.7309L5.67515 6.88491M14.1328 4.08653C14.423 4.13186 14.7115 4.17981 15 4.23124M14.1328 4.08653L13.2267 16.1893C13.1897 16.6821 12.973 17.1423 12.62 17.478C12.267 17.8137 11.8037 18.0001 11.3227 18H4.67733C4.19632 18.0001 3.73299 17.8137 3.37998 17.478C3.02698 17.1423 2.81032 16.6821 2.77333 16.1893L1.86715 4.08653M14.1328 4.08653C13.1536 3.93442 12.1693 3.81898 11.1818 3.74043M1.86715 4.08653C1.57697 4.13099 1.28848 4.17893 1 4.23037M1.86715 4.08653C2.84642 3.93442 3.83074 3.81898 4.81818 3.74043M11.1818 3.74043V2.94189C11.1818 1.9132 10.4097 1.05538 9.40848 1.02312C8.46973 0.992293 7.53027 0.992293 6.59152 1.02312C5.5903 1.05538 4.81818 1.91407 4.81818 2.94189V3.74043M11.1818 3.74043C9.06376 3.57225 6.93624 3.57225 4.81818 3.74043" stroke="#FC3A3A" stroke-width="1.5" stroke-linecap="round" stroke-linejoin="round"/>
</svg>
