<svg width="37" height="37" viewBox="0 0 37 37" fill="none" xmlns="http://www.w3.org/2000/svg">
<path d="M30.1326 31.5763C28.774 29.7774 27.0162 28.3186 24.9977 27.3147C22.9793 26.3109 20.7553 25.7894 18.501 25.7915C16.2467 25.7894 14.0227 26.3109 12.0042 27.3147C9.98577 28.3186 8.22797 29.7774 6.86931 31.5763M30.1326 31.5763C32.7839 29.218 34.6537 26.1095 35.4977 22.663C36.3417 19.2165 36.1181 15.5948 34.8566 12.2783C33.5951 8.9618 31.3552 6.10713 28.434 4.09289C25.5128 2.07864 22.0483 1 18.5 1C14.9517 1 11.4872 2.07864 8.56604 4.09289C5.64484 6.10713 3.40495 8.9618 2.1434 12.2783C0.881858 15.5948 0.65827 19.2165 1.50229 22.663C2.34631 26.1095 4.21806 29.218 6.86931 31.5763M30.1326 31.5763C26.9321 34.4311 22.7897 36.0061 18.501 36C14.2116 36.0066 10.0703 34.4316 6.86931 31.5763M24.3343 14.1246C24.3343 15.6718 23.7197 17.1555 22.6258 18.2495C21.5318 19.3435 20.0481 19.9581 18.501 19.9581C16.9539 19.9581 15.4701 19.3435 14.3762 18.2495C13.2822 17.1555 12.6676 15.6718 12.6676 14.1246C12.6676 12.5775 13.2822 11.0938 14.3762 9.99978C15.4701 8.9058 16.9539 8.29121 18.501 8.29121C20.0481 8.29121 21.5318 8.9058 22.6258 9.99978C23.7197 11.0938 24.3343 12.5775 24.3343 14.1246Z" stroke="#3E1874" stroke-width="1.5" stroke-linecap="round" stroke-linejoin="round"/>
</svg>
