<svg width="50" height="46" viewBox="0 0 50 46" fill="none" xmlns="http://www.w3.org/2000/svg">
<path d="M48 23C48 21.481 47.3942 20.0243 46.3159 18.9502C45.2375 17.8761 43.775 17.2727 42.25 17.2727H32.6667C32.6667 19.298 31.8589 21.2404 30.4212 22.6725C28.9834 24.1045 27.0333 24.9091 25 24.9091C22.9667 24.9091 21.0166 24.1045 19.5788 22.6725C18.1411 21.2404 17.3333 19.298 17.3333 17.2727H7.75C6.22501 17.2727 4.76247 17.8761 3.68414 18.9502C2.6058 20.0243 2 21.481 2 23M48 23V38.2727C48 39.7917 47.3942 41.2484 46.3159 42.3225C45.2375 43.3966 43.775 44 42.25 44H7.75C6.22501 44 4.76247 43.3966 3.68414 42.3225C2.6058 41.2484 2 39.7917 2 38.2727V23M48 23V15.3636M2 23V15.3636M48 15.3636C48 13.8447 47.3942 12.3879 46.3159 11.3138C45.2375 10.2398 43.775 9.63636 42.25 9.63636H7.75C6.22501 9.63636 4.76247 10.2398 3.68414 11.3138C2.6058 12.3879 2 13.8447 2 15.3636M48 15.3636V7.72727C48 6.20831 47.3942 4.75155 46.3159 3.67748C45.2375 2.60341 43.775 2 42.25 2H7.75C6.22501 2 4.76247 2.60341 3.68414 3.67748C2.6058 4.75155 2 6.20831 2 7.72727V15.3636" stroke="#3E1874" stroke-width="3.5" stroke-linecap="round" stroke-linejoin="round"/>
</svg>
