<svg width="28" height="23" viewBox="0 0 28 23" fill="none" xmlns="http://www.w3.org/2000/svg">
<path d="M2 16.25L8.34954 9.71527C8.60669 9.45062 8.91197 9.24068 9.24795 9.09745C9.58393 8.95423 9.94403 8.88051 10.3077 8.88051C10.6714 8.88051 11.0315 8.95423 11.3674 9.09745C11.7034 9.24068 12.0087 9.45062 12.2658 9.71527L18.6154 16.25M16.7692 14.35L18.5034 12.5653C18.7605 12.3006 19.0658 12.0907 19.4018 11.9475C19.7378 11.8042 20.0979 11.7305 20.4615 11.7305C20.8252 11.7305 21.1853 11.8042 21.5213 11.9475C21.8573 12.0907 22.1625 12.3006 22.4197 12.5653L26 16.25M3.84615 21H24.1538C24.6435 21 25.1131 20.7998 25.4593 20.4435C25.8055 20.0872 26 19.6039 26 19.1V3.9C26 3.39609 25.8055 2.91282 25.4593 2.5565C25.1131 2.20018 24.6435 2 24.1538 2H3.84615C3.35652 2 2.88695 2.20018 2.54073 2.5565C2.1945 2.91282 2 3.39609 2 3.9V19.1C2 19.6039 2.1945 20.0872 2.54073 20.4435C2.88695 20.7998 3.35652 21 3.84615 21ZM16.7692 6.75H16.7791V6.76013H16.7692V6.75ZM17.2308 6.75C17.2308 6.87598 17.1821 6.9968 17.0956 7.08588C17.009 7.17496 16.8916 7.225 16.7692 7.225C16.6468 7.225 16.5294 7.17496 16.4429 7.08588C16.3563 6.9968 16.3077 6.87598 16.3077 6.75C16.3077 6.62402 16.3563 6.5032 16.4429 6.41412C16.5294 6.32504 16.6468 6.275 16.7692 6.275C16.8916 6.275 17.009 6.32504 17.0956 6.41412C17.1821 6.5032 17.2308 6.62402 17.2308 6.75Z" stroke="#6527BE" stroke-width="2.5" stroke-linecap="round" stroke-linejoin="round"/>
</svg>
