<svg width="20" height="26" viewBox="0 0 20 26" fill="none" xmlns="http://www.w3.org/2000/svg">
<path d="M19 15.7692V12.5385C19 11.4368 18.5733 10.3802 17.8138 9.60125C17.0543 8.82225 16.0241 8.38462 14.95 8.38462H13.15C12.792 8.38462 12.4486 8.23874 12.1954 7.97907C11.9422 7.71941 11.8 7.36722 11.8 7V5.15385C11.8 4.05218 11.3733 2.99563 10.6138 2.21663C9.85426 1.43764 8.82413 1 7.75 1H5.5M5.5 16.6923H14.5M5.5 20.3846H10M8.2 1H2.35C1.6048 1 1 1.62031 1 2.38462V23.6154C1 24.3797 1.6048 25 2.35 25H17.65C18.3952 25 19 24.3797 19 23.6154V12.0769C19 9.13914 17.8621 6.32168 15.8368 4.24436C13.8114 2.16703 11.0643 1 8.2 1Z" stroke="#6527BE" stroke-width="2" stroke-linecap="round" stroke-linejoin="round"/>
</svg>
