<svg width="24" height="18" viewBox="0 0 24 18" fill="none" xmlns="http://www.w3.org/2000/svg">
<path d="M2.65625 17.125H21.3438M2.65625 17.125C2.33302 17.125 2.02302 16.9966 1.79446 16.768C1.5659 16.5395 1.4375 16.2295 1.4375 15.9063M2.65625 17.125H4.28125C4.954 17.125 5.5 16.579 5.5 15.9063M21.3438 17.125C22.0165 17.125 22.5625 16.579 22.5625 15.9063M21.3438 17.125H19.7188C19.3955 17.125 19.0855 16.9966 18.857 16.768C18.6284 16.5395 18.5 16.2295 18.5 15.9063M1.4375 15.9063V2.09375M1.4375 15.9063V14.2813C1.4375 13.6085 1.9835 13.0625 2.65625 13.0625M5.5 15.9063V10.2188M5.5 15.9063C5.5 16.579 6.046 17.125 6.71875 17.125H17.2813C17.954 17.125 18.5 16.579 18.5 15.9063M5.5 15.9063V14.2813C5.5 13.6085 4.954 13.0625 4.28125 13.0625M1.4375 2.09375C1.4375 1.421 1.9835 0.875 2.65625 0.875M1.4375 2.09375V3.71875C1.4375 4.3915 1.9835 4.9375 2.65625 4.9375M2.65625 13.0625C1.9835 13.0625 1.4375 12.5165 1.4375 11.8438V10.2188C1.4375 9.546 1.9835 9 2.65625 9M2.65625 13.0625H4.28125M22.5625 15.9063V2.09375M22.5625 15.9063V14.2813C22.5625 13.6085 22.0165 13.0625 21.3438 13.0625M22.5625 2.09375C22.5625 1.421 22.0165 0.875 21.3438 0.875M22.5625 2.09375V3.71875C22.5625 4.3915 22.0165 4.9375 21.3438 4.9375M21.3438 13.0625C22.0165 13.0625 22.5625 12.5165 22.5625 11.8438V10.2188C22.5625 9.546 22.0165 9 21.3438 9M21.3438 13.0625H19.7188M18.5 15.9063V10.2188M18.5 15.9063V14.2813C18.5 13.6085 19.046 13.0625 19.7188 13.0625M21.3438 0.875H2.65625M21.3438 0.875H19.7188C19.046 0.875 18.5 1.421 18.5 2.09375M2.65625 0.875H4.28125C4.954 0.875 5.5 1.421 5.5 2.09375M18.5 2.09375C18.5 1.421 17.954 0.875 17.2813 0.875H6.71875C6.046 0.875 5.5 1.421 5.5 2.09375M18.5 2.09375V3.71875C18.5 4.04198 18.6284 4.35198 18.857 4.58054C19.0855 4.8091 19.3955 4.9375 19.7188 4.9375M18.5 2.09375V7.78125M21.3438 4.9375H19.7188M21.3438 4.9375C22.0165 4.9375 22.5625 5.4835 22.5625 6.15625V7.78125C22.5625 8.454 22.0165 9 21.3438 9M5.5 2.09375V3.71875C5.5 4.3915 4.954 4.9375 4.28125 4.9375M5.5 2.09375V7.78125M2.65625 4.9375H4.28125M2.65625 4.9375C1.9835 4.9375 1.4375 5.4835 1.4375 6.15625V7.78125C1.4375 8.454 1.9835 9 2.65625 9M4.28125 4.9375C4.954 4.9375 5.5 5.4835 5.5 6.15625V7.78125M2.65625 9H4.28125M5.5 7.78125C5.5 8.10448 5.6284 8.41448 5.85696 8.64304C6.08552 8.8716 6.39552 9 6.71875 9M5.5 7.78125C5.5 8.454 4.954 9 4.28125 9M19.7188 4.9375C19.046 4.9375 18.5 5.4835 18.5 6.15625V7.78125M18.5 7.78125C18.5 8.454 17.954 9 17.2813 9M18.5 7.78125C18.5 8.454 19.046 9 19.7188 9M21.3438 9H19.7188M6.71875 9H17.2813M6.71875 9C6.046 9 5.5 9.546 5.5 10.2188M17.2813 9C17.954 9 18.5 9.546 18.5 10.2188M5.5 10.2188V11.8438C5.5 12.5165 4.954 13.0625 4.28125 13.0625M5.5 10.2188C5.5 9.546 4.954 9 4.28125 9M19.7188 9C19.046 9 18.5 9.546 18.5 10.2188M18.5 10.2188V11.8438C18.5 12.5165 19.046 13.0625 19.7188 13.0625" stroke="#3E1874" stroke-width="1.5" stroke-linecap="round" stroke-linejoin="round"/>
</svg>
