<svg width="28" height="25" viewBox="0 0 28 25" fill="none" xmlns="http://www.w3.org/2000/svg">
<path d="M22.7556 4.80989C23.7842 5.81976 24.6001 7.01866 25.1568 8.33814C25.7135 9.65761 26 11.0718 26 12.5C26 13.9282 25.7135 15.3424 25.1568 16.6619C24.6001 17.9813 23.7842 19.1802 22.7556 20.1901M19.4929 8.0145C20.7044 9.2042 21.385 10.8177 21.385 12.5C21.385 14.1823 20.7044 15.7958 19.4929 16.9855M7.53844 7.96859L13.3476 2.26505C13.4767 2.13846 13.6411 2.05227 13.8201 2.01737C13.999 1.98247 14.1845 2.00041 14.3531 2.06894C14.5217 2.13747 14.6658 2.25351 14.7672 2.4024C14.8686 2.55129 14.9229 2.72636 14.923 2.90549V22.0945C14.9229 22.2736 14.8686 22.4487 14.7672 22.5976C14.6658 22.7465 14.5217 22.8625 14.3531 22.9311C14.1845 22.9996 13.999 23.0175 13.8201 22.9826C13.6411 22.9477 13.4767 22.8615 13.3476 22.735L7.53844 17.0314H4.78153C3.69846 17.0314 2.68431 16.4188 2.39631 15.3953C2.13234 14.452 1.99903 13.4782 2.00001 12.5C2.00001 11.497 2.13785 10.5267 2.39631 9.60473C2.68431 8.58003 3.69846 7.96859 4.78153 7.96859H7.53844Z" stroke="#3E1874" stroke-width="2.5" stroke-linecap="round" stroke-linejoin="round"/>
</svg>
