<svg width="45" height="45" viewBox="0 0 45 45" fill="none" xmlns="http://www.w3.org/2000/svg">
<path d="M29.9135 0.0347023C28.2301 0.158482 26.2414 0.67836 24.9211 1.34678C22.792 2.41129 22.6518 2.53507 13.558 11.6123L5.3638 19.7901V28.7022V37.6144L2.6819 40.2963L0 42.9783L1.015 43.9933L2.02174 45L4.70364 42.3181L7.38554 39.6362H16.2977L25.2099 39.6279L33.4289 31.4007C41.7551 23.0579 42.242 22.5462 43.092 21.1104C45.0312 17.8426 45.5263 13.8238 44.4205 10.1764C43.7356 7.89063 42.6794 6.16596 40.8227 4.29275C39.3786 2.82389 38.1325 1.94092 36.5151 1.20649C34.5016 0.298767 32.1085 -0.130337 29.9135 0.0347023ZM32.6697 2.96417C34.2458 3.21173 36.0283 3.96267 37.3321 4.92815C38.3141 5.65434 39.6509 7.04067 40.2863 7.98966C41.5736 9.91238 42.1677 11.8599 42.176 14.1374C42.1842 15.3752 42.0357 16.4067 41.7056 17.4135C41.4663 18.1727 40.7154 19.7405 40.5751 19.7983C40.5173 19.8148 37.4971 19.8231 33.8497 19.8148L27.2234 19.7901L29.3771 17.6115L31.5309 15.4247L30.5572 14.4592L29.5834 13.4855L18.9383 24.0894L8.29326 34.6932L8.26851 27.8275L8.252 20.9618L10.9917 18.1892C17.0816 12.0414 23.9886 5.24998 24.5497 4.85389C25.3502 4.29275 26.7035 3.62434 27.5947 3.33551C29.3111 2.78263 30.846 2.67535 32.6697 2.96417ZM35.4011 25.484L32.5542 28.3309H25.6225H18.6908L21.5377 25.484L24.3847 22.637H31.3164H38.248L35.4011 25.484ZM26.9015 33.9835L24.0546 36.8305H17.1229H10.1912L13.0382 33.9835L15.8851 31.1366H22.8168H29.7485L26.9015 33.9835Z" fill="#6527BE"/>
</svg>
