<svg width="40" height="45" viewBox="0 0 40 45" fill="none" xmlns="http://www.w3.org/2000/svg">
<path d="M9.44286 0.0676441C8.97 0.198919 8.63291 0.527109 8.49714 0.981884C8.45032 1.15067 8.43628 2.37434 8.43628 7.26436C8.43628 12.8483 8.44096 13.3874 8.52055 13.9922C8.93255 17.1897 10.412 19.8106 12.8371 21.639C15.4168 23.5894 18.8485 24.3208 22.1305 23.6222C24.6867 23.0737 26.9948 21.625 28.5539 19.5808C29.5417 18.2868 30.2627 16.735 30.5764 15.2347C30.876 13.8047 30.862 14.2267 30.862 7.38157C30.862 2.21494 30.8526 1.10847 30.7964 0.920935C30.656 0.428652 30.1597 0.0723324 29.5323 0.0160713C28.9424 -0.0401897 28.8816 -0.0120583 26.9995 1.2163C26.0585 1.83049 25.2157 2.36966 25.1268 2.41654C24.8927 2.54313 24.2326 2.53844 24.0032 2.41654C23.9142 2.36966 23.1792 1.87268 22.3692 1.31945C21.564 0.76153 20.7821 0.259869 20.6323 0.198919C20.0143 -0.0495663 19.2652 -0.044878 18.6566 0.212984C18.4974 0.278622 17.7249 0.775595 16.9384 1.31945C16.1518 1.85862 15.4262 2.34621 15.3232 2.40247C15.061 2.54313 14.4149 2.54782 14.1715 2.41654C14.0825 2.36497 13.3006 1.86331 12.4392 1.29601C11.5777 0.72871 10.7725 0.212984 10.6554 0.152035C10.3699 0.00200653 9.8174 -0.0355015 9.44286 0.0676441ZM20.9553 3.79025C22.4582 4.83576 22.9919 5.11238 23.7784 5.27178C24.4807 5.40775 25.3094 5.34211 26.0163 5.08893C26.4986 4.91546 26.7748 4.76543 27.3975 4.3341C27.7065 4.12312 27.9874 3.93559 28.0201 3.91683C28.0623 3.8887 28.0763 4.49351 28.0763 6.86115V9.84299H19.6491H11.2219V6.86584C11.2219 5.22959 11.236 3.8887 11.25 3.8887C11.2641 3.8887 11.5122 4.0528 11.8025 4.25909C12.8746 5.01392 13.7595 5.34211 14.7286 5.34211C15.4168 5.34211 16.1237 5.16864 16.7792 4.83107C16.929 4.75606 17.6313 4.2919 18.3382 3.80431C19.0452 3.31203 19.6491 2.9182 19.6772 2.92758C19.7053 2.93695 20.2812 3.32609 20.9553 3.79025ZM28.0576 13.1343C27.9733 14.4329 27.6877 15.4691 27.1025 16.6037C26.1568 18.4462 24.4667 19.9184 22.519 20.5982C21.564 20.9311 20.1922 21.1327 19.2746 21.0764C16.9899 20.9311 15.1359 20.1059 13.6284 18.5587C12.1489 17.0397 11.4279 15.3519 11.2453 12.9936L11.2219 12.656H19.6538H28.0904L28.0576 13.1343Z" fill="#6527BE"/>
<path d="M14.1246 26.754C13.6705 26.7774 12.7294 26.8946 11.9944 27.0306C9.07296 27.5557 6.40903 28.9529 4.31628 31.058C2.50444 32.8818 1.3059 34.9306 0.598955 37.4342C0.280594 38.5594 0.11205 39.6612 0.0277786 41.1005C-0.0564933 42.5211 0.0418239 43.14 0.449138 43.7683C0.889225 44.4528 1.53063 44.8466 2.38271 44.9591C2.65893 44.9966 7.78079 45.006 19.9066 44.9966C36.1804 44.9826 37.0559 44.9779 37.3228 44.8982C37.9782 44.7059 38.4792 44.3496 38.8163 43.8386C39.2563 43.1775 39.3359 42.7696 39.2985 41.4428C39.2423 39.5768 38.9286 37.8749 38.3434 36.2902C37.0653 32.7974 34.5231 29.9656 31.1943 28.3199C29.3638 27.4151 27.4676 26.9181 25.2906 26.7681C24.7101 26.7259 14.9205 26.7165 14.1246 26.754ZM26.3206 29.6655C28.1933 29.9702 29.5932 30.4954 31.0492 31.433C32.3086 32.2488 33.8114 33.7585 34.6495 35.0572C35.8152 36.8669 36.4192 38.8923 36.4894 41.2412L36.5175 42.1929H19.6491H2.78066L2.81343 41.3115C2.90707 38.8454 3.48293 36.9044 4.65805 35.0666C5.48204 33.7819 7.04107 32.2207 8.3192 31.4002C9.97654 30.3313 11.971 29.6889 13.9841 29.567C14.1246 29.5577 16.8213 29.553 19.9768 29.5577C25.5715 29.5624 25.726 29.567 26.3206 29.6655Z" fill="#6527BE"/>
</svg>
