<svg width="38" height="38" viewBox="0 0 38 38" fill="none" xmlns="http://www.w3.org/2000/svg">
<path d="M19 7V31M13 25.364L14.758 26.682C17.1 28.44 20.898 28.44 23.242 26.682C25.586 24.924 25.586 22.076 23.242 20.318C22.072 19.438 20.536 19 19 19C17.55 19 16.1 18.56 14.994 17.682C12.782 15.924 12.782 13.076 14.994 11.318C17.206 9.56 20.794 9.56 23.006 11.318L23.836 11.978M37 19C37 21.3638 36.5344 23.7044 35.6298 25.8883C34.7252 28.0722 33.3994 30.0565 31.7279 31.7279C30.0565 33.3994 28.0722 34.7252 25.8883 35.6298C23.7044 36.5344 21.3638 37 19 37C16.6362 37 14.2956 36.5344 12.1117 35.6298C9.92784 34.7252 7.94353 33.3994 6.27208 31.7279C4.60062 30.0565 3.27475 28.0722 2.37017 25.8883C1.46558 23.7044 1 21.3638 1 19C1 14.2261 2.89642 9.64773 6.27208 6.27208C9.64773 2.89642 14.2261 1 19 1C23.7739 1 28.3523 2.89642 31.7279 6.27208C35.1036 9.64773 37 14.2261 37 19Z" stroke="#6527BE" stroke-width="1.5" stroke-linecap="round" stroke-linejoin="round"/>
</svg>
