<svg width="159" height="159" viewBox="0 0 159 159" fill="none" xmlns="http://www.w3.org/2000/svg">
<mask id="mask0_340_2310" style="mask-type:luminance" maskUnits="userSpaceOnUse" x="0" y="0" width="159" height="159">
<path d="M159 79.5C159 35.5934 123.407 0 79.5 0C35.5934 0 0 35.5934 0 79.5C0 123.407 35.5934 159 79.5 159C123.407 159 159 123.407 159 79.5Z" fill="white"/>
</mask>
<g mask="url(#mask0_340_2310)">
<path d="M159 0H0V159H159V0Z" fill="#FFB238"/>
<path d="M80.3135 23.062C36.9474 29.9305 7.36026 70.6537 14.2288 114.02C21.0973 157.386 61.8205 186.973 105.187 180.104C148.553 173.236 178.14 132.513 171.271 89.1467C164.403 45.7806 123.68 16.1935 80.3135 23.062Z" fill="#49007E"/>
<path d="M35.4138 88.7183C35.4905 93.1102 37.8902 97.2817 42.0853 100.315C46.2803 103.348 51.9268 104.995 57.7828 104.893C63.6388 104.791 69.2245 102.948 73.3111 99.77C77.3976 96.5921 79.6504 92.3394 79.5737 87.9474" fill="white"/>
<path d="M41.7295 70.9386C41.6869 68.4997 40.1695 66.5484 38.3404 66.5804C36.5112 66.6123 35.0629 68.6153 35.1055 71.0542C35.148 73.4931 36.6654 75.4443 38.4945 75.4124C40.3237 75.3804 41.772 73.3774 41.7295 70.9386Z" fill="white"/>
<path d="M77.0574 70.3219C77.0148 67.883 75.4975 65.9317 73.6683 65.9637C71.8392 65.9956 70.3908 67.9986 70.4334 70.4375C70.476 72.8764 71.9933 74.8276 73.8225 74.7957C75.6516 74.7637 77.1 72.7607 77.0574 70.3219Z" fill="white"/>
</g>
</svg>
